<svg xmlns="http://www.w3.org/2000/svg" xmlns:xlink="http://www.w3.org/1999/xlink" width="1735.077" height="171.737" viewBox="0 0 1735.077 171.737" >
  <defs>
    <filter id="Path_280" x="0" y="0" width="1735.077" height="171.737" filterUnits="userSpaceOnUse">
      <feOffset dx="20" dy="20" input="SourceAlpha"/>
      <feGaussianBlur stdDeviation="10" result="blur"/>
      <feFlood flood-opacity="0.161"/>
      <feComposite operator="in" in2="blur"/>
      <feComposite in="SourceGraphic"/>
    </filter>
  </defs>
  <g id="Group_145" data-name="Group 145" transform="translate(10.403 -2317.994)">
    <g transform="matrix(1, 0, 0, 1, -10.4, 2317.99)" filter="url(#Path_280)">
      <path id="Path_280-2" data-name="Path 280" d="M0,108.129l1675.077,1.84L1548.034-1.768,0-1.166Z" transform="translate(10 11.77)" fill="#fb0"/>
    </g>
    <path id="Path_279" data-name="Path 279" d="M0,111.737H1399.4L1293.483,0H0Z" transform="translate(0.097 2327.993)" fill="#ff6f00"/>
    <g id="Group_11" data-name="Group 11" transform="translate(140.971 2427.739)">
      <path id="Path_246" data-name="Path 246" d="M40.458-17.05l-1.635,1.467c-.442.337-.963.725-1.529,1.088a14.382,14.382,0,0,1-1.979,1.149,21.1,21.1,0,0,1-9.772,2.386h-.053A20.812,20.812,0,0,1,15.6-13.453l-1.935-1.157a14.647,14.647,0,0,1-1.378-1.007l-.018-.009-.177-.124L10.62-17.1l-.1-.1A21.182,21.182,0,0,1,4.215-32.388a20.009,20.009,0,0,1,.345-3.6,16.3,16.3,0,0,1,.486-2.209c.133-.459.309-.946.468-1.4l.1-.265A13.568,13.568,0,0,1,6.583-42,21.213,21.213,0,0,1,22.5-53.426a15.173,15.173,0,0,1,2.182-.185,6.524,6.524,0,0,1,.742-.036l.23-.008a6.88,6.88,0,0,1,.972.053,18.612,18.612,0,0,1,2.156.194A21.4,21.4,0,0,1,44.655-41.824a17.192,17.192,0,0,1,.9,2.093,10.811,10.811,0,0,1,.557,1.715,13.7,13.7,0,0,1,.495,2.235,21.715,21.715,0,0,1,.3,3.543A21.144,21.144,0,0,1,40.458-17.05Zm-14.8-40.819A25.582,25.582,0,0,0,0-32.423,25.6,25.6,0,0,0,25.464-6.739,25.616,25.616,0,0,0,51.131-32.2,25.607,25.607,0,0,0,25.658-57.869Z" transform="translate(-5.939 0)" fill="#fff"/>
      <path id="Path_247" data-name="Path 247" d="M39.513-18.419l-6.839-11.23,12.087-4.843a16.252,16.252,0,0,1,.221,2.925A18.459,18.459,0,0,1,39.513-18.419Zm-1.635,1.493c-.433.318-.839.645-1.334.963-.009,0-.018.018-.027.035l-7.068-9.781a6.624,6.624,0,0,0,1.423-1.043L37.9-16.962A.089.089,0,0,1,37.878-16.925ZM26.171-12.87a18.415,18.415,0,0,1-8.464-2.076l8.438-9.949,8.464,10.028A18.344,18.344,0,0,1,26.171-12.87Zm-10.364-3.19-.053-.053a10.019,10.019,0,0,1-1.237-.9l-.08-.063,7.1-9.728a6.007,6.007,0,0,0,1.4,1.043Zm-2.986-2.492A18.607,18.607,0,0,1,7.467-31.716a20.285,20.285,0,0,1,.256-2.9l.124.043,11.946,4.9ZM8.209-36.805a15.7,15.7,0,0,1,.495-1.5c.009-.01.018-.053.035-.071L20.2-34.6a6.582,6.582,0,0,0-.574,1.643L8.182-36.734A.676.676,0,0,0,8.209-36.805Zm15.073-13.35-.945,13.023v.009h-.009L9.649-40.357A18.786,18.786,0,0,1,23.282-50.155ZM21.745-32.193a.977.977,0,0,1-.981-.973.978.978,0,0,1,.981-.98.978.978,0,0,1,.981.98A.977.977,0,0,1,21.745-32.193Zm1.7,3.349a.978.978,0,0,1,.981.98.977.977,0,0,1-.981.973.977.977,0,0,1-.981-.973A.978.978,0,0,1,23.441-28.844Zm2.792-5.505a2.723,2.723,0,0,1,2.721,2.722,2.721,2.721,0,0,1-2.721,2.712,2.719,2.719,0,0,1-2.712-2.712A2.721,2.721,0,0,1,26.233-34.35Zm0-3.109a.973.973,0,0,1,.981.98.971.971,0,0,1-.981.973.977.977,0,0,1-.981-.973A.978.978,0,0,1,26.233-37.459Zm-.822-12.9a.856.856,0,0,1,.2-.027c.186-.01.362-.01.557-.01h.265a5.517,5.517,0,0,1,.7.036h.035l-.044,12.052a5.977,5.977,0,0,0-.892-.062,5.859,5.859,0,0,0-.884.062Zm4.612,22.494a.971.971,0,0,1-.981.973.977.977,0,0,1-.981-.973.978.978,0,0,1,.981-.98A.973.973,0,0,1,30.024-27.864Zm1.714-5.3a.977.977,0,0,1-.981.973.977.977,0,0,1-.981-.973.978.978,0,0,1,.981-.98A.978.978,0,0,1,31.738-33.166Zm11.168-7.076L30.183-37.1l-.866-13.023A18.817,18.817,0,0,1,42.906-40.242Zm.919,2.129a12.12,12.12,0,0,1,.486,1.483.054.054,0,0,0,.009.036L32.842-32.917a6.451,6.451,0,0,0-.539-1.635L43.78-38.246A.786.786,0,0,0,43.824-38.113ZM46.4-35a12.675,12.675,0,0,0-.477-2.12,9.932,9.932,0,0,0-.53-1.644,18.113,18.113,0,0,0-.857-1.988A20.533,20.533,0,0,0,29.334-51.862a19.767,19.767,0,0,0-2.147-.193,6.632,6.632,0,0,0-.857-.045,7.216,7.216,0,0,0-.91.045,15.246,15.246,0,0,0-2.129.176A20.391,20.391,0,0,0,8.023-40.887a13,13,0,0,0-.91,1.988c-.186.53-.389,1.087-.548,1.635A16.311,16.311,0,0,0,6.1-35.154a19.306,19.306,0,0,0-.327,3.438,20.376,20.376,0,0,0,6.052,14.561l.071.071,1.476,1.352.062.027A13.273,13.273,0,0,0,14.8-14.7l1.891,1.14a20.05,20.05,0,0,0,9.472,2.386,20.143,20.143,0,0,0,9.445-2.3,13.753,13.753,0,0,0,1.882-1.1c.495-.318.963-.663,1.414-1.008l1.608-1.438A20.377,20.377,0,0,0,46.7-31.557,21.18,21.18,0,0,0,46.4-35Z" transform="translate(-6.61 -0.672)" fill="#fff"/>
    </g>
    <text id="Our_Services" data-name="Our Services" transform="translate(205 2416)" fill="#fff" font-size="60" font-family="TimesNewRomanPS-BoldMT, Times New Roman" font-weight="700"><tspan x="0" y="0">Our Services</tspan></text>
  </g>
</svg>
