<svg xmlns="http://www.w3.org/2000/svg" width="120" height="120" viewBox="0 0 120 120">
  <g id="Group_144" data-name="Group 144" transform="translate(-1747 -948)">
    <circle id="Ellipse_70" data-name="Ellipse 70" cx="24" cy="24" r="24" transform="translate(1783 984)" fill="#1f1f1f"/>
    <g id="Group_139" data-name="Group 139">
      <rect id="Rectangle_728" data-name="Rectangle 728" width="32" height="40" transform="translate(1787 978)" fill="#fff"/>
      <path id="Icon_ionic-logo-whatsapp" data-name="Icon ionic-logo-whatsapp" d="M32.686,2.25A29.238,29.238,0,0,0,3.336,31.374,28.823,28.823,0,0,0,7.547,46.413L2.25,62.038,18.5,56.876a29.4,29.4,0,0,0,43.538-25.5A29.238,29.238,0,0,0,32.686,2.25ZM47.281,42.435c-.69,1.712-3.813,3.274-5.191,3.346s-1.416,1.067-8.92-2.193S21.152,32.4,20.8,31.888s-2.907-4.143-2.769-7.8a8.317,8.317,0,0,1,2.856-6.1,2.874,2.874,0,0,1,2.033-.856c.591-.01.974-.018,1.411,0s1.093-.091,1.662,1.42,1.927,5.225,2.1,5.6a1.36,1.36,0,0,1,.014,1.3,5.1,5.1,0,0,1-.8,1.212c-.392.42-.824.94-1.173,1.261-.39.356-.8.744-.387,1.5a22.46,22.46,0,0,0,3.974,5.3,20.478,20.478,0,0,0,5.885,3.913c.736.4,1.175.356,1.632-.124s1.954-2.1,2.482-2.825,1.022-.584,1.7-.311S45.712,37.6,46.448,38s1.227.6,1.4.921A6.164,6.164,0,0,1,47.281,42.435Z" transform="translate(1770.75 967.75)" fill="#4ac959"/>
    </g>
  </g>
</svg>
