<svg xmlns="http://www.w3.org/2000/svg" xmlns:xlink="http://www.w3.org/1999/xlink" width="752.481" height="95.123" viewBox="0 0 752.481 95.123">
  <defs>
    <clipPath id="clip-path">
      <path id="Path_366" data-name="Path 366" d="M175.519-18.441s-.5-10.873-.537-16.773c.2,6.655.444,14.279.562,16.719Z" transform="translate(-174.982 35.214)" fill="none" clip-rule="evenodd"/>
    </clipPath>
    <linearGradient id="linear-gradient" x1="0.402" y1="0.941" x2="0.846" y2="0.941" gradientUnits="objectBoundingBox">
      <stop offset="0" stop-color="#fff"/>
      <stop offset="0.1" stop-color="#fbfbfc"/>
      <stop offset="0.2" stop-color="#f8f8f9"/>
      <stop offset="0.3" stop-color="#f4f5f6"/>
      <stop offset="0.4" stop-color="#e2e3e3"/>
      <stop offset="0.5" stop-color="#d0d1d1"/>
      <stop offset="0.6" stop-color="#b3b3b4"/>
      <stop offset="0.7" stop-color="#969696"/>
      <stop offset="0.8" stop-color="#717171"/>
      <stop offset="0.9" stop-color="#636464"/>
      <stop offset="1" stop-color="#636464"/>
    </linearGradient>
    <clipPath id="clip-path-2">
      <path id="Path_409" data-name="Path 409" d="M10.975-16.229a.145.145,0,0,1-.044-.073A2.477,2.477,0,0,1,11-17.281a4.5,4.5,0,0,0-.042.566Q10.954-16.466,10.975-16.229ZM30.589-28.874c.072-.2.15-.391.231-.588-.058.22-.113.414-.162.578Zm.944-.255a7.735,7.735,0,0,0,.293-1.217c.287.131.577.26.865.391C32.436-29.772,32.039-29.49,31.533-29.129Z" transform="translate(-10.904 30.346)" fill="none" clip-rule="evenodd"/>
    </clipPath>
    <linearGradient id="linear-gradient-2" x1="0.133" y1="0.241" x2="0.288" y2="0.241" gradientUnits="objectBoundingBox">
      <stop offset="0" stop-color="#fff"/>
      <stop offset="0.1" stop-color="#fdfdfd"/>
      <stop offset="0.2" stop-color="#fbfbfc"/>
      <stop offset="0.3" stop-color="#e9eaea"/>
      <stop offset="0.4" stop-color="#cbcccc"/>
      <stop offset="0.5" stop-color="#a2a1a2"/>
      <stop offset="0.6" stop-color="#6d6c6d"/>
      <stop offset="0.7" stop-color="#636464"/>
      <stop offset="0.8" stop-color="#636464"/>
      <stop offset="0.9" stop-color="#636464"/>
      <stop offset="1" stop-color="#636464"/>
    </linearGradient>
    <clipPath id="clip-path-3">
      <path id="Path_411" data-name="Path 411" d="M27.289-29.681c-.288-.131-.578-.26-.865-.391.05-.3.1-.654.131-1.06l1.068,1.212Z" transform="translate(-26.423 31.132)" fill="none" clip-rule="evenodd"/>
    </clipPath>
    <linearGradient id="linear-gradient-3" x1="0.133" y1="0.241" x2="0.288" y2="0.241" gradientUnits="objectBoundingBox">
      <stop offset="0" stop-color="#beb8b8"/>
      <stop offset="0.1" stop-color="#bdb6b6"/>
      <stop offset="0.2" stop-color="#bbb5b5"/>
      <stop offset="0.3" stop-color="#b0a9a9"/>
      <stop offset="0.4" stop-color="#989393"/>
      <stop offset="0.5" stop-color="#7a7676"/>
      <stop offset="0.6" stop-color="#514f4f"/>
      <stop offset="0.7" stop-color="#504d4e"/>
      <stop offset="0.8" stop-color="#4e4b4c"/>
      <stop offset="0.9" stop-color="#4c4a4a"/>
      <stop offset="1" stop-color="#4b4848"/>
    </linearGradient>
    <clipPath id="clip-path-4">
      <path id="Path_413" data-name="Path 413" d="M26.387-26.44c-1.964,0-4.644-.492-6.006-2.893-.005.008-.009.018-.015.026a6.944,6.944,0,0,1-.822-2.792l-.9-.6a16.126,16.126,0,0,1,1.413-2.254l1.839-1.889c.106-.081.212-.156.317-.228l6.461,7.333a23.979,23.979,0,0,1-.545,2.617c-.081.2-.159.391-.231.588A12.711,12.711,0,0,1,26.387-26.44Z" transform="translate(-18.641 37.071)" fill="none" clip-rule="evenodd"/>
    </clipPath>
    <linearGradient id="linear-gradient-4" x1="0.133" y1="0.241" x2="0.288" y2="0.241" gradientUnits="objectBoundingBox">
      <stop offset="0" stop-color="#d8d8d8"/>
      <stop offset="0.1" stop-color="#d6d6d6"/>
      <stop offset="0.2" stop-color="#d5d5d4"/>
      <stop offset="0.3" stop-color="#c6c6c6"/>
      <stop offset="0.4" stop-color="#adadae"/>
      <stop offset="0.5" stop-color="#8a8a8a"/>
      <stop offset="0.6" stop-color="#5c5c5c"/>
      <stop offset="0.7" stop-color="#5a5a5a"/>
      <stop offset="0.8" stop-color="#585959"/>
      <stop offset="0.9" stop-color="#565757"/>
      <stop offset="1" stop-color="#545555"/>
    </linearGradient>
  </defs>
  <g id="Group_168" data-name="Group 168" transform="translate(-1127.519 -5171.002)">
    <g id="Group_44" data-name="Group 44" transform="translate(1604.193 5241.564)">
      <path id="Path_341" data-name="Path 341" d="M39.309-29.109c1.914.088,7.2-2.234,7.093-2.458a2.765,2.765,0,0,0-2.8-1.161c.98-.538,1.468-1.161,2.021-1.322s2.139-.222,2.119-.723-1.912-1.639-3.811-.483-6.045,2.974-6.045,2.974Z" transform="translate(13.188 12.115)" fill="#625b59"/>
      <path id="Path_342" data-name="Path 342" d="M27.1-38.414c1.978,1.31,6.042,7.364,9.172,8.481.934.328,9.475-2.4,9.475-2.4l.413,5.52s-8.772,2.9-10.495,2.5-13.82-6.054-13.82-6.054Z" transform="translate(7.604 11.189)" fill="#beb8b8"/>
      <path id="Path_343" data-name="Path 343" d="M52.518-60.972l1.309-.321,5.728,23.479-1.309.318Z" transform="translate(18.279 3.226)" fill="#222020"/>
      <path id="Path_344" data-name="Path 344" d="M114.238-32s-3.016-12-4.3-17.917c-.072-.333,13.523.013,23.864,2.61,5.7,1.432,8.649,3.994,11.8,5.929,13.179,8.1,13.324,9.273,13.324,9.273Zm-47.853-.059S75.23-44.394,78-46.16c6.124-3.9,27.069-3.562,27.069-3.562L108.692-32Zm141.729,5.488c-6.769-2.633-39.1-7.1-39.1-7.1L138.4-52.318c-28.573-8.646-59.783-1.97-64.86.476-2.464,1.188-13.847,13.215-19.486,17.727,0,0-10.472,1.6-11.719,10.551C41.755-19.4,41.2-10.693,39.7-3.808,37.446,6.531,46.47,6.344,46.47,6.344l4.736.051a18.647,18.647,0,0,1-.224-2.873A18.327,18.327,0,1,1,87.346,6.765c25.246-.093,44.29.009,71.111.189a13.778,13.778,0,0,1-.283-3.431,18.329,18.329,0,1,1,36.185,4.125c10.113.011,14.426-.036,15.323-.175,4.887-.752,7.236-4.984,7.989-8.744C218.83-14.467,208.114-26.573,208.114-26.573Z" transform="translate(13.693 4.855)" fill="#716f6f"/>
      <path id="Path_345" data-name="Path 345" d="M50.009-7.362A15.225,15.225,0,0,1,65.236-22.59,15.225,15.225,0,0,1,80.462-7.362,15.224,15.224,0,0,1,65.236,7.863,15.224,15.224,0,0,1,50.009-7.362Z" transform="translate(17.406 16.697)" fill="#222020"/>
      <path id="Path_346" data-name="Path 346" d="M54.99-8.539A9.082,9.082,0,0,0,64.06.528a9.081,9.081,0,0,0,9.068-9.067A9.084,9.084,0,0,0,64.06-17.61,9.085,9.085,0,0,0,54.99-8.539Zm-1.6,0A10.671,10.671,0,0,1,64.06-19.209a10.67,10.67,0,0,1,10.67,10.67A10.671,10.671,0,0,1,64.06,2.129,10.672,10.672,0,0,1,53.388-8.539Z" transform="translate(18.582 17.874)" fill="#beb8b8"/>
      <path id="Path_347" data-name="Path 347" d="M73.276-6.722c-3.873-.229-6.751-1.091-6.751-2.115s2.879-1.889,6.751-2.118a9.81,9.81,0,0,0-1.293-3.115c-2.9,2.575-5.543,4-6.268,3.277s.7-3.369,3.28-6.27a9.922,9.922,0,0,0-2.007-.976,10.476,10.476,0,0,0-1.108-.314c-.229,3.874-1.091,6.751-2.118,6.751s-1.887-2.877-2.116-6.752a9.855,9.855,0,0,0-3.115,1.293c2.576,2.9,4,5.543,3.277,6.268s-3.37-.7-6.27-3.277a9.825,9.825,0,0,0-.975,2,10.22,10.22,0,0,0-.315,1.111C58.121-10.725,61-9.865,61-8.837s-2.878,1.886-6.754,2.115a9.857,9.857,0,0,0,1.293,3.115c2.9-2.576,5.543-4,6.268-3.278s-.7,3.37-3.277,6.271a9.73,9.73,0,0,0,2.006.975,9.472,9.472,0,0,0,1.109.315c.229-3.874,1.091-6.751,2.116-6.751S65.65-3.2,65.879.677A9.79,9.79,0,0,0,68.992-.615c-2.573-2.9-4-5.545-3.277-6.27s3.37.705,6.271,3.28a10.032,10.032,0,0,0,.976-2.007A10.324,10.324,0,0,0,73.276-6.722Z" transform="translate(18.881 18.171)" fill="#beb8b8"/>
      <path id="Path_348" data-name="Path 348" d="M129.809-7.362A15.225,15.225,0,0,1,145.034-22.59,15.227,15.227,0,0,1,160.262-7.362,15.226,15.226,0,0,1,145.034,7.863,15.224,15.224,0,0,1,129.809-7.362Z" transform="translate(45.181 16.697)" fill="#222020"/>
      <path id="Path_349" data-name="Path 349" d="M134.788-8.539a9.081,9.081,0,0,0,9.07,9.067,9.079,9.079,0,0,0,9.067-9.067,9.082,9.082,0,0,0-9.067-9.071A9.083,9.083,0,0,0,134.788-8.539Zm-1.6,0A10.67,10.67,0,0,1,143.858-19.21,10.668,10.668,0,0,1,154.523-8.539,10.668,10.668,0,0,1,143.858,2.13,10.67,10.67,0,0,1,133.189-8.539Z" transform="translate(46.357 17.874)" fill="#beb8b8"/>
      <path id="Path_350" data-name="Path 350" d="M153.073-6.722c-3.872-.229-6.748-1.091-6.748-2.115s2.877-1.889,6.75-2.118a9.8,9.8,0,0,0-1.291-3.115c-2.9,2.575-5.543,4-6.27,3.277s.7-3.369,3.278-6.27a9.819,9.819,0,0,0-2.007-.976,10.273,10.273,0,0,0-1.107-.314c-.231,3.874-1.089,6.751-2.118,6.751s-1.889-2.877-2.116-6.752a9.836,9.836,0,0,0-3.114,1.293c2.572,2.9,4,5.543,3.277,6.268s-3.37-.7-6.27-3.277a9.759,9.759,0,0,0-.976,2,10.846,10.846,0,0,0-.314,1.111c3.872.229,6.751,1.089,6.751,2.118s-2.879,1.886-6.754,2.115a9.825,9.825,0,0,0,1.293,3.115c2.9-2.576,5.546-4,6.27-3.278s-.705,3.37-3.28,6.271a9.711,9.711,0,0,0,2.007.975,9.623,9.623,0,0,0,1.109.315c.228-3.874,1.089-6.751,2.116-6.751S145.447-3.2,145.678.677a9.784,9.784,0,0,0,3.114-1.291c-2.575-2.9-4.005-5.545-3.278-6.27s3.37.705,6.27,3.28a9.888,9.888,0,0,0,.976-2.007A9.733,9.733,0,0,0,153.073-6.722Z" transform="translate(46.655 18.171)" fill="#beb8b8"/>
      <path id="Path_351" data-name="Path 351" d="M45.093-36.8c1.833.142,1.215.042,3.384.142l3.846.138c2.169.1,2.381,1.023.469,2.054l-9.637,5.1c-1.912,1.031-1.939.81-1.646-1.01l.727-3.443C42.555-35.531,43.377-36.933,45.093-36.8Z" transform="translate(14.4 11.748)" fill="#d8d8d8"/>
      <path id="Path_352" data-name="Path 352" d="M53.534-18.925h-13.4c-.136.632-.279,1.29-.433,2-.929,4.256.054,6.725,1.53,8.16h9.782c-.013-.276-.032-.549-.032-.829A18.25,18.25,0,0,1,53.534-18.925Z" transform="translate(13.693 17.973)" fill="#3b3938"/>
      <path id="Path_353" data-name="Path 353" d="M148.916-18.925H73.273A18.25,18.25,0,0,1,75.825-9.6c0,.28-.026.553-.035.829h70.576c0-.257,0-.528,0-.829A18.224,18.224,0,0,1,148.916-18.925Z" transform="translate(25.503 17.973)" fill="#393939"/>
      <path id="Path_354" data-name="Path 354" d="M178.034-18.925H152.79a18.225,18.225,0,0,1,2.555,9.33c0,.279-.013.554-.027.829h20.315a12.859,12.859,0,0,0,2.551-5.623A15.83,15.83,0,0,0,178.034-18.925Z" transform="translate(53.18 17.973)" fill="#3b3938"/>
      <path id="Path_355" data-name="Path 355" d="M106.588-34.139a1.044,1.044,0,0,1-1.043,1.045H97.195a1.044,1.044,0,0,1-1.043-1.045,1.042,1.042,0,0,1,1.043-1.042h8.349A1.043,1.043,0,0,1,106.588-34.139Z" transform="translate(33.466 12.315)" fill="#d8d8d8"/>
      <path id="Path_356" data-name="Path 356" d="M133.115-36.832a5.31,5.31,0,0,1-5.566,5.011c-1.529,0-1.669-2.245-1.669-5.011s.14-5.008,1.669-5.008A5.308,5.308,0,0,1,133.115-36.832Z" transform="translate(43.813 9.997)" fill="#d8d8d8"/>
      <path id="Path_357" data-name="Path 357" d="M171.733-28.218s-8.293-.391-11.481-1.252c-3.861-1.043-6.367-2.714-3.652-3.547s11.271.417,11.271.417Z" transform="translate(54.109 12.968)" fill="#d8d8d8"/>
      <path id="Path_358" data-name="Path 358" d="M169.415-35l-33.674-5.008c-2.089,2.506.555,4.729.555,4.729l38.267,2.924Z" transform="translate(46.966 10.635)" fill="#222020"/>
      <path id="Path_359" data-name="Path 359" d="M133.414-29.859l27.347-40.285s4.59-1.672,3.756,1.669-28.386,45.5-28.386,45.5Z" transform="translate(46.436 0)" fill="#716f6f"/>
      <path id="Path_360" data-name="Path 360" d="M74.528-48.033C68.1-57.521,56.034-68.321,38.475-66.112c-.38,1.127,1.852,3.506,2.9,3.621a54.443,54.443,0,0,1,11.984,2.236c7.564,2.532,12.39,8.94,15.836,17.3A38.048,38.048,0,0,0,74.528-48.033Z" transform="translate(13.376 1.448)" fill="#716f6f"/>
      <path id="Path_361" data-name="Path 361" d="M184.443-9.425c-.477,1.34-.131,2.781.057,4.59s.608,3.173-1.211,3.587A76.451,76.451,0,0,1,174.71-.8s-3.62-.816.152-2.445c2.927-1.266,5.1-2.854,4.845-6.289C179.657-10.2,184.443-9.425,184.443-9.425Z" transform="translate(60.265 21.147)"/>
      <path id="Path_362" data-name="Path 362" d="M174.8-41.726c.158,6.673.728,25.3.849,26.255,1.08,8.954,2.147,21.3,2.147,21.3l5.508-.133s2.16-15.445.17-21.863c-.607-1.953,2.281-21.062,2.281-21.062Z" transform="translate(60.842 10.037)" fill="#272525"/>
      <path id="Path_363" data-name="Path 363" d="M188.072-6.768c.17,1.507.991,3.536.511,5.6-.167.716-1.479,1.019-2.547,1.274-.442.106-1.979,1.146-2.766,1.44-2.867,1.069-4.242.282-4.778-.036s-.705-1.12.576-2.332c1.095-1.039,2.664-1.608,3.1-2.586s.2-4.027.2-4.027Z" transform="translate(61.985 21.973)" fill="#222020"/>
      <path id="Path_364" data-name="Path 364" d="M175.218-41.682c.146,6.673,1.42,14.268,4.064,27.917.886,4.525,3.47,24.059,3.47,24.059l7.134.194s.789-12.873-1.517-24.144c-.255-1.25.291-12.254.934-20.856.388-5.1-2.815-10.652-2.815-10.652Z" transform="translate(60.986 8.84)" fill="#716f6f"/>
      <g id="Group_37" data-name="Group 37" transform="translate(235.886 -22.911)" clip-path="url(#clip-path)">
        <g id="Group_36" data-name="Group 36" transform="matrix(0.13, -0.992, 0.992, 0.13, -248.117, 45.871)">
          <path id="Path_365" data-name="Path 365" d="M94.319,0,126.87,248.883,32.551,261.219,0,12.336Z" transform="translate(0 0)" fill="url(#linear-gradient)"/>
        </g>
      </g>
      <path id="Path_367" data-name="Path 367" d="M175.545-17.393c-.119-2.44-.367-10.063-.562-16.719a25.778,25.778,0,0,1,.112-3.537,1.527,1.527,0,0,1,.572-.733c.426,4.192,1.223,9.1,2.431,15.6Z" transform="translate(60.903 11.201)" fill="#41424a" fill-rule="evenodd"/>
      <path id="Path_368" data-name="Path 368" d="M177.92-21.447c-1.208-6.5-2-11.4-2.431-15.6,2.507-2.068,12.265-5.187,12.265-5.187Z" transform="translate(61.08 9.861)" fill="#d8d8d8" fill-rule="evenodd"/>
      <path id="Path_369" data-name="Path 369" d="M148.716-38.8c.452.384,2.7-.356,4.242-.868.638-.218,5.69.194,5.934.073.394-.2-1.353-2.54-1.353-2.54a27.512,27.512,0,0,1-4.934.023,22.71,22.71,0,0,1-2.912-.867,31.513,31.513,0,0,0-3.163,1.246Z" transform="translate(51.001 9.6)" fill="#272525"/>
      <path id="Path_370" data-name="Path 370" d="M157.343-43.17c-1.235-.036-5.074,1.472-5.752,1.01a4.844,4.844,0,0,0-2.49-.671c-.957-.094-1.482-1.584-1.694-1.322s-.367.313.051,1.043a4.972,4.972,0,0,0,.826,1.05s3.246.975,3.539,1.039,5.518-.674,5.743-.627S157.343-43.17,157.343-43.17Z" transform="translate(51.232 9.181)" fill="#272525"/>
      <path id="Path_371" data-name="Path 371" d="M168.187-51.538c-1.726,1.316-4.579,8.052-7.444,9.109-2.668.984-9.289,2.714-9.289,2.714l2.4,3.966s3.164-.154,5.187-.461a18.279,18.279,0,0,0,5.918-1.862c1.438-.778,8.012-6.112,7.848-7.993S168.187-51.538,168.187-51.538Z" transform="translate(52.715 6.622)" fill="#716f6f"/>
      <path id="Path_372" data-name="Path 372" d="M170.287-51.773l-2-.256a6.176,6.176,0,0,1-3.177-1.479c-.65-1.821-2.127-3.952-5.2-6.153-4.465-3.21-9.122,3.572-8.184,7.149a6.2,6.2,0,0,0-.147,1.128c.592,1.591,2.232,2.352,4.032,3.646l.1.077a14.552,14.552,0,0,1,1.239,2.081l.14.109c.309.22.81-.252,1.341-.605l.136.061a4.629,4.629,0,0,0,2.813.713l.276-.031c.91-.248,1.109-.446,1.961-1.453,1.378.522,4.826,2.346,4.826,2.346l.372-2.923-.182-.011Z" transform="translate(52.755 3.502)" fill="#d8d8d8"/>
      <path id="Path_373" data-name="Path 373" d="M157.516-60.988c-1.235-.128-2.71-.12-4.385,1.99-1.627,2.044-2.423,3.621-2.1,6.072a1.8,1.8,0,0,0,1.348,1.51s.352-1.827.879-2.2.612,1.019,2.042,1.107c1.2.074,2.848.2,2.848.2s2.439-1.461,3.15-.954,3.952-.237,3.952-.237a8.916,8.916,0,0,0-2.1-4.74C160.17-61.94,157.808-60.95,157.516-60.988Z" transform="translate(52.543 3.3)" fill="#272525"/>
      <path id="Path_374" data-name="Path 374" d="M157.16-54.316c.051-.581-.146-1.91.6-1.9a2.7,2.7,0,0,1,1.978,2.692C159.5-52.26,157.16-54.316,157.16-54.316Z" transform="translate(54.701 4.994)" fill="#716f6f"/>
      <path id="Path_375" data-name="Path 375" d="M149.638-51.286c-.971,1.131-.348,2.014,1.043,2s1.492-.705,2.106-1.678a20.015,20.015,0,0,0,1.53-2.982Z" transform="translate(51.919 5.784)" fill="#272525"/>
      <path id="Path_376" data-name="Path 376" d="M165-56.764c-.919.395-6.992,1.759-6.992,1.759s-1.564,3.944-2.952,4.763-4.649.282-5.84,2.366a16.979,16.979,0,0,1,2.088-3.761,7.218,7.218,0,0,1,.3-5.869,7.659,7.659,0,0,1,3.621-3.516c1.091-.3,3.57-1.415,5.9.146A14.844,14.844,0,0,1,165-56.764Z" transform="translate(51.934 3.088)" fill="#3b3938"/>
      <path id="Path_377" data-name="Path 377" d="M159.663-60.856a14.827,14.827,0,0,1,3.872,4.112c-.772.333-5.175,1.348-6.564,1.663-.479-2.162-1.836-4.887-3.479-5.811l.27-.109C154.852-61.3,157.331-62.415,159.663-60.856Z" transform="translate(53.424 3.096)" fill="#716f6f"/>
      <path id="Path_378" data-name="Path 378" d="M161.324-49.967l-.346,1.529,2.575,2.149.843-2.925Z" transform="translate(56.03 7.168)" fill="#222020"/>
      <path id="Path_379" data-name="Path 379" d="M163.517-54.038A19.481,19.481,0,0,1,177.6-51.162C183.858-47.4,192.278-44,192.556-37.943c.092,1.991-7.306,6.82-11.829,7.1-1.855.112-4.469-2.5-6.4-4.454s-9.184-5.078-11.62-10.993C161.707-48.722,163.517-54.038,163.517-54.038Z" transform="translate(56.526 5.649)" fill="#716f6f"/>
      <path id="Path_380" data-name="Path 380" d="M163.007-54.618c-.005,1.154-1.359,7.521-1.359,7.521l3.691,2.58.408-9.938Z" transform="translate(56.263 5.55)" fill="#3b3938"/>
      <path id="Path_381" data-name="Path 381" d="M145.448-45.7l.7-.452,9.486,14.728-.7.452Z" transform="translate(50.624 8.495)" fill="#222020"/>
      <path id="Path_382" data-name="Path 382" d="M145.5-47.188a.928.928,0,0,0-.794.917l.012.139a.924.924,0,0,0,.917.79l.138-.008a.933.933,0,0,0,.791-.918l-.008-.138h0a.933.933,0,0,0-.917-.793Zm-1.149,1.111-.018-.194a1.3,1.3,0,0,1,1.109-1.285l.194-.013a1.3,1.3,0,0,1,1.285,1.108l-.185.027.185-.024.013.19a1.308,1.308,0,0,1-1.108,1.286l-.193.011A1.292,1.292,0,0,1,144.354-46.078Z" transform="translate(50.237 8.003)" fill="#222020"/>
      <path id="Path_383" data-name="Path 383" d="M146.589-42.053c-.395.493-.313,1.109.241,1.08-.182.466.271,1.232.766,1.114-.2.38.251.813.731.766.146.386.41.477.836.346.585-.175,1.7-.5,1.7-.985s-1.589.2-1.589.2,1.154-.35,1.273-.871c0,0,.233-.483-.209-.426s-1.891.361-1.891.361,1.736-.661,1.7-.86c-.062-.363-.088-.683-2.476.058,1.48-.52,1.77-.716,1.669-1.127S146.589-42.053,146.589-42.053Z" transform="translate(50.936 9.759)" fill="#d8d8d8"/>
      <path id="Path_384" data-name="Path 384" d="M174.247-36.692c1.933,1.957,4.548,4.566,6.4,4.454a28.255,28.255,0,0,0,6.61-2.228,7.82,7.82,0,0,0-.557-2.157c-2.157-5.983-16.349-12.037-19.412-13.706l-4.461,3.063C165.428-41.627,172.361-38.6,174.247-36.692Z" transform="translate(56.674 7.042)" fill="#272525"/>
      <path id="Path_385" data-name="Path 385" d="M148.483-35.106a18.9,18.9,0,0,1,3.114-1.2c.121-.061,1.126-.561,1.9-1-.861-.2-2.123-.613-1.739-.834a14.288,14.288,0,0,1,3.578.287l4.458.031c-1.781,2.195.4,1.7-1.091,2.734-.3.208-4.929,1.38-5.353,1.44s-3.006.634-3.265.239c-.1-.151,1.317-.387,1.9-.475-.736.105-2.894.4-2.817.105.077-.313,2.715-.911,2.715-.911a22.1,22.1,0,0,1-2.563.438c-.834.027-.843-.24-.293-.368.453-.1,2.631-.771,2.631-.771s-.985.241-1.941.441C148.664-34.738,148.309-34.812,148.483-35.106Z" transform="translate(51.666 11.27)" fill="#716f6f"/>
      <path id="Path_386" data-name="Path 386" d="M172.837-52.315a8.34,8.34,0,0,1,.7,3.939c-.679,4.534-3.393,11.631-5.271,13.3a26.115,26.115,0,0,1-10.96,5.322c-1.761.456-3.176-3.326-3.176-3.326s9.055-6.32,9.647-7.32c1.672-2.817,2.715-10.234,3.618-11.565A3.456,3.456,0,0,1,172.837-52.315Z" transform="translate(53.646 5.947)" fill="#d8d8d8"/>
      <path id="Path_387" data-name="Path 387" d="M27.4-34.6a40.8,40.8,0,0,0,3.958-3.58l-2.715-3.629s-5.793,3.435-6.411,3.974S27.4-34.6,27.4-34.6Z" transform="translate(7.723 10.008)" fill="#686868"/>
      <path id="Path_388" data-name="Path 388" d="M35.62-46.184c-1.572-3.32-10.039-4.914-10.853.621-1.482,10.079,4.81,11.414,4.81,11.414,2.118-.049,2.65.186,4.18-.415.747-.291,1.391-1.391,1.847-2.835.666-.146,1.372-.388,1.3-.861a12.66,12.66,0,0,1-.748-1.642A12.111,12.111,0,0,0,35.62-46.184Z" transform="translate(8.542 7.434)" fill="#c4c4c4"/>
      <path id="Path_389" data-name="Path 389" d="M31.117-48.772c-2.805-.568-5.957-.1-6.434,3.149-1.482,10.081,4.81,11.417,4.81,11.417.241,0,2.3-.016,2.506-.018C28.011-36.668,30.1-44.786,31.117-48.772Z" transform="translate(8.512 7.513)" fill="#818181"/>
      <path id="Path_390" data-name="Path 390" d="M25.862-48.172A5.9,5.9,0,0,1,31.1-50.013c2.573.252,3.415.859,4.94,2.764a4.7,4.7,0,0,1,.564,2.881,4.469,4.469,0,0,0-1.6-.17c-.631.112-1.429-.317-2.351.759a5.7,5.7,0,0,0-1.068,2.006s-2.711.725-2.839,1.584S25.507-37.2,25.507-37.2a19.118,19.118,0,0,1-1.96-4.959C22.868-46.8,25.687-47.946,25.862-48.172Z" transform="translate(8.159 7.139)" fill="#0f0f0f"/>
      <path id="Path_391" data-name="Path 391" d="M28.982-43.329c-.381-.431-.665-1.085-1.239-.634s-1.43,2.873-.491,3.737c.5.459.955-.445,1.274-1.394A15.927,15.927,0,0,0,28.982-43.329Z" transform="translate(9.34 9.205)" fill="#686868"/>
      <path id="Path_392" data-name="Path 392" d="M30.851-43.819c.919-1.074,1.723-.644,2.352-.758a4.517,4.517,0,0,1,1.6.17,4.706,4.706,0,0,0-.562-2.881c-1.527-1.906-2.044-2.416-4.616-2.666-1.038-.1-1.105,4.276-.338,8.264.727-.314.5-.12.5-.12A5.708,5.708,0,0,1,30.851-43.819Z" transform="translate(10.013 7.172)" fill="#434343"/>
      <path id="Path_393" data-name="Path 393" d="M.687-10.06c.6-1.347,7.621-2.293,16.214-2.146,8.287.147,15.14,1.26,16.2,2.567a2.191,2.191,0,0,1,.937,1.773l.1,5.822a2.043,2.043,0,0,1-1.436,2.1C30.723,1.049,24.5,2.05,17.27,1.923S3.811.327,1.613-.6A2.3,2.3,0,0,1,.1-2.643L0-8.464A2.042,2.042,0,0,1,.687-10.06Z" transform="translate(0 20.306)"/>
      <path id="Path_394" data-name="Path 394" d="M1.613-.6A2.3,2.3,0,0,1,.1-2.643L0-8.464a2.042,2.042,0,0,1,.686-1.6c.6-1.347,7.621-2.293,16.214-2.146l.368.009.248,14.124-.247,0C10.038,1.8,3.811.327,1.613-.6Z" transform="translate(0 20.306)" fill="#222020"/>
      <path id="Path_395" data-name="Path 395" d="M1.937-9.863c.018,1,6.473,1.92,14.42,2.06S30.729-8.36,30.714-9.358s-6.475-1.922-14.42-2.061S1.92-10.862,1.937-9.863Z" transform="translate(0.674 20.579)"/>
      <path id="Path_396" data-name="Path 396" d="M4.089-9.851C4.1-9.164,9.255-8.515,15.6-8.4s11.476-.357,11.465-1.043S21.9-10.781,15.555-10.892,4.079-10.536,4.089-9.851Z" transform="translate(1.423 20.763)" fill="#beb8b8"/>
      <path id="Path_397" data-name="Path 397" d="M.9-17.561c.607-1.347,7.619-2.293,16.221-2.147,8.287.146,15.141,1.262,16.2,2.572a2.194,2.194,0,0,1,.946,1.771l.1,5.824a2.057,2.057,0,0,1-1.432,2.1c-1.99.995-8.214,1.99-15.445,1.868S4.032-7.175,1.836-8.1A2.318,2.318,0,0,1,.32-10.148l-.1-5.811A2.067,2.067,0,0,1,.9-17.561Z" transform="translate(0.077 17.695)"/>
      <path id="Path_398" data-name="Path 398" d="M1.836-8.1A2.318,2.318,0,0,1,.32-10.148l-.1-5.811a2.067,2.067,0,0,1,.679-1.6c.607-1.347,7.619-2.293,16.221-2.147.121,0,.243.012.364.012l.255,14.122h-.255C10.256-5.707,4.032-7.175,1.836-8.1Z" transform="translate(0.077 17.695)" fill="#222020"/>
      <path id="Path_399" data-name="Path 399" d="M2.157-17.364c.018,1,6.473,1.92,14.419,2.061s14.373-.558,14.358-1.557-6.473-1.921-14.42-2.06S2.139-18.362,2.157-17.364Z" transform="translate(0.751 17.969)"/>
      <path id="Path_400" data-name="Path 400" d="M4.308-17.352c.012.689,5.166,1.337,11.514,1.446s11.477-.356,11.467-1.042-5.166-1.333-11.515-1.444S4.3-18.037,4.308-17.352Z" transform="translate(1.5 18.153)" fill="#beb8b8"/>
      <path id="Path_401" data-name="Path 401" d="M24.277-5.565c-.247,2.331-.236,5.279,1.44,5.152s2.222-1.221,4.556-.972,9.125,1,9-.675A2.329,2.329,0,0,0,36.851-4.4c-2.941-.17-5.632-4.521-6.693-4.133C28.723-8.006,24.277-5.565,24.277-5.565Z" transform="translate(8.41 21.581)"/>
      <path id="Path_402" data-name="Path 402" d="M20.965-4.937c-.59,2.269-1.366,5,.311,5.124S23.228-.044,25.5.548s7.836,1.139,8.322.024c.67-1.542-.853-2.427-2.048-2.677C28.89-2.71,26.727-6.8,25.62-6.57A37.713,37.713,0,0,0,20.965-4.937Z" transform="translate(7.052 22.27)" fill="#222020"/>
      <path id="Path_403" data-name="Path 403" d="M21.508-24.174c6.74,1.854,15.772,2.857,17.75,5.28,1.74,2.135,1.235,4.044-.337,9.436-1.34,4.591-1.685,5.505-2.134,9.1-.266,2.116-9,1.229-9.719.522-3.017-2.959,3.468-12.844,5-15.344,1.033-1.688-11.646-1.46-13.481-.566Z" transform="translate(6.468 16.146)" fill="#2a2b30"/>
      <path id="Path_404" data-name="Path 404" d="M27.587-40.178c-2.208.874-12.375,3.713-14.134,24.459,0,0,14.074-7.947,15.906-8.274.243-2.645,2.329-3.312,1.335-10.228A12.436,12.436,0,0,0,27.587-40.178Z" transform="translate(4.682 10.575)" fill="#d8d8d8"/>
      <path id="Path_405" data-name="Path 405" d="M16.062-27.229c.085-2.16,4-8.323,6.576-10.276,3.943-2.985,6.952.364,7.389,4.161.619,5.363-.4,7.389-.4,7.389l-.958.582s3.082-8.869-1.08-11.684c-1.18-.793-4.765-1.084-7.88,4.591a25.809,25.809,0,0,0-1.729,3.986C17-25.64,16.062-27.229,16.062-27.229Z" transform="translate(5.591 11.106)" fill="#616366"/>
      <path id="Path_406" data-name="Path 406" d="M18.949-35.048c-.728,1.444-8.007,16.173-8.007,19.97S14.472-9.533,19-9.715s11.4-.4,11.4-.4-3.652,6.357-6.576,12.3c-1.227,2.5.121,3.931.121,3.931l9.209-.109A82.937,82.937,0,0,0,39.162-8.6c1.517-4.683.813-7.122-3.531-8.08-4.477-.995-9.439-2.2-9.439-2.2l5.253-8.5s-8.5,1.99-9.221-5.423L20.587-33.9Z" transform="translate(3.808 12.361)" fill="#6f6f6f"/>
      <path id="Path_407" data-name="Path 407" d="M29.015-28.674s-6.08,1.407-8.384-2.657c-2.875,4.962-3.142,10.385-2.269,10.822.74.376,4.233.74,6.976.619a.818.818,0,0,1-.3-1.42Z" transform="translate(6.238 13.655)" fill="#262626"/>
      <g id="Group_39" data-name="Group 39" transform="translate(14.699 -16.348)" clip-path="url(#clip-path-2)">
        <g id="Group_38" data-name="Group 38" transform="matrix(0.717, -0.697, 0.697, 0.717, -62.24, -8.036)">
          <path id="Path_408" data-name="Path 408" d="M66.276,0,246.324,174.886l-66.276,68.232L0,68.232Z" transform="translate(0 0)" fill="url(#linear-gradient-2)"/>
        </g>
      </g>
      <g id="Group_41" data-name="Group 41" transform="translate(35.62 -17.408)" clip-path="url(#clip-path-3)">
        <g id="Group_40" data-name="Group 40" transform="matrix(0.717, -0.697, 0.697, 0.717, -83.161, -6.976)">
          <path id="Path_410" data-name="Path 410" d="M66.276,0,246.324,174.886l-66.276,68.232L0,68.232Z" transform="translate(0 0)" fill="url(#linear-gradient-3)"/>
        </g>
      </g>
      <g id="Group_43" data-name="Group 43" transform="translate(25.13 -25.414)" clip-path="url(#clip-path-4)">
        <g id="Group_42" data-name="Group 42" transform="matrix(0.717, -0.697, 0.697, 0.717, -72.671, 1.03)">
          <path id="Path_412" data-name="Path 412" d="M66.276,0,246.324,174.886l-66.276,68.232L0,68.232Z" transform="translate(0 0)" fill="url(#linear-gradient-4)"/>
        </g>
      </g>
      <path id="Path_414" data-name="Path 414" d="M28.087-26.529c.049-.164.1-.359.162-.578a23.978,23.978,0,0,0,.545-2.617l.592.673c-.034.406-.081.758-.131,1.06a7.735,7.735,0,0,1-.293,1.217l-.193.136C28.637-26.612,28.4-26.57,28.087-26.529Zm-9.323-6.158L18.29-33l1.886-1.939A16.126,16.126,0,0,0,18.764-32.687Zm3.252-4.143.272-.279.044.051C22.227-36.986,22.122-36.911,22.015-36.83Z" transform="translate(6.366 11.644)" fill="#202020" fill-rule="evenodd"/>
      <path id="Path_415" data-name="Path 415" d="M11.148-14.88a.269.269,0,0,1-.186-.055q-.02-.237-.02-.485a4.5,4.5,0,0,1,.042-.566c.686-3.4,4.981-13.059,4.981-13.059l4.884-5.017.473.315.9.6a6.944,6.944,0,0,0,.822,2.792c-2.369,4.1-2.958,8.512-2.6,10.156C16.142-17.34,12.147-14.88,11.148-14.88Z" transform="translate(3.808 12.704)" fill="#cacacb" fill-rule="evenodd"/>
      <path id="Path_416" data-name="Path 416" d="M18.021-21.149c-.361-1.645.228-6.054,2.6-10.156.005-.008.009-.018.015-.026,1.362,2.4,4.041,2.893,6.006,2.893a12.711,12.711,0,0,0,1.508-.093l.069-.009c.314-.04.55-.082.682-.109C26.558-26.988,22.147-23.886,18.021-21.149Z" transform="translate(6.238 13.655)" fill="#3f424a" fill-rule="evenodd"/>
      <path id="Path_417" data-name="Path 417" d="M40.683-30.217c.665-.542,3.355-3.669,3.851-3.587s.243.693-.071,1.393-.042.491-.042.491a14.019,14.019,0,0,1,3.459-.174c1.07.062,1.825.933.124,1.057.856.179,1.554.922.263,1.248.735.216.983.884-.1,1.173.442.071.627.523.085.938a5.822,5.822,0,0,1-3.725,1.124c-2.21-.008-3.754.09-3.754.09Z" transform="translate(14.16 12.793)" fill="#737373"/>
      <path id="Path_418" data-name="Path 418" d="M44.518-27.644a5.822,5.822,0,0,0,3.725-1.124c.542-.415.357-.867-.085-.938.843-.225.875-.675.5-.971a17.79,17.79,0,0,1-7.947,1.031l.05,2.092S42.308-27.652,44.518-27.644Z" transform="translate(14.171 13.882)" fill="#5c5c5c"/>
      <path id="Path_419" data-name="Path 419" d="M20.255-34.649A6.664,6.664,0,0,0,21.6-30.268c2.32,2.052,8.477,5.019,12,6.352s15.528-.279,15.528-.279l-1.333-4.912s-10.635-1.343-13.54-2.862-5.7-4.7-7.51-5.461C23.376-38.838,20.343-36.762,20.255-34.649Z" transform="translate(7.048 11.372)" fill="#d8d8d8"/>
    </g>
    <path id="Path_420" data-name="Path 420" d="M0,0H752.481V4H0Z" transform="translate(1127.519 5262)" fill="#4e5458"/>
  </g>
</svg>
