<svg xmlns="http://www.w3.org/2000/svg" width="91.44" height="92.261" viewBox="0 0 91.44 92.261">
  <g id="Group_146" data-name="Group 146" transform="translate(0.999 1.006)">
    <path id="Path_288" data-name="Path 288" d="M350.313,331.408l8.875,6.082a44.768,44.768,0,0,1-4.957,15.291l-10.765-.3,3.6,10.124a45.1,45.1,0,0,1-12.985,9.449l-8.538-6.569-3.045,10.33a45.529,45.529,0,0,1-16.063,0l-3.045-10.33-8.538,6.569a45.11,45.11,0,0,1-12.985-9.449l3.6-10.124-10.765.3a44.762,44.762,0,0,1-4.957-15.291l8.875-6.082-8.875-6.082a44.724,44.724,0,0,1,4.953-15.283l10.773.3L281.867,300.2a45.44,45.44,0,0,1,13-9.449l8.53,6.569,3.041-10.326a45.584,45.584,0,0,1,16.075,0l3.041,10.327,8.53-6.569a45.432,45.432,0,0,1,13,9.449l-3.611,10.143,10.773-.3a44.722,44.722,0,0,1,4.953,15.283Z" transform="translate(-269.751 -286.28)" fill="none" stroke="#fb0" stroke-linecap="round" stroke-linejoin="round" stroke-width="2"/>
    <path id="Path_289" data-name="Path 289" d="M308.63,347.6a21.879,21.879,0,1,0,21.879-21.879A21.879,21.879,0,0,0,308.63,347.6Z" transform="translate(-284.834 -301.369)" fill="#fb0" stroke="#fb0" stroke-linecap="round" stroke-linejoin="round" stroke-width="2"/>
  </g>
</svg>
