<svg width="2792" height="2272" viewBox="0 0 2792 2272" fill="none" xmlns="http://www.w3.org/2000/svg">
<rect width="2792" height="2272" fill="#353738"/>
<rect x="321" y="881" width="2195" height="512" fill="#FF6F00"/>
<path d="M470.489 989.816V1238.37C470.489 1257.04 471.311 1269 472.954 1274.23C474.598 1279.31 478.034 1283.49 483.264 1286.78C488.493 1290.06 496.86 1291.71 508.365 1291.71H515.313V1300H355.291V1291.71H363.359C376.358 1291.71 385.622 1290.21 391.15 1287.23C396.678 1284.24 400.414 1280.13 402.356 1274.9C404.298 1269.67 405.27 1257.49 405.27 1238.37V1080.81C405.27 1066.76 404.597 1058.02 403.252 1054.59C401.908 1051 399.368 1048.01 395.632 1045.62C392.046 1043.08 387.863 1041.81 383.082 1041.81C375.461 1041.81 366.198 1044.2 355.291 1048.98L351.256 1040.92L463.093 989.816H470.489ZM766.104 989.816V996.092C739.061 1002.96 717.321 1011.85 700.885 1022.76C684.599 1033.52 671.675 1046.67 662.112 1062.21C652.699 1077.6 645.378 1096.72 640.148 1119.58C646.723 1115.1 652.176 1112.19 656.509 1110.84C666.221 1107.85 676.008 1106.36 685.869 1106.36C708.58 1106.36 727.481 1114.65 742.572 1131.24C757.812 1147.67 765.432 1170.16 765.432 1198.7C765.432 1218.72 761.323 1237.1 753.105 1253.83C744.888 1270.57 733.233 1283.49 718.143 1292.6C703.052 1301.72 686.915 1306.28 669.732 1306.28C651.056 1306.28 633.798 1301.2 617.96 1291.04C602.123 1280.73 589.721 1265.71 580.756 1245.99C571.941 1226.26 567.533 1204.82 567.533 1181.66C567.533 1147.6 575.676 1115.92 591.962 1086.64C608.398 1057.2 631.632 1033.82 661.664 1016.49C691.846 999.005 726.659 990.115 766.104 989.816ZM637.235 1137.74C636.04 1158.36 635.442 1173.45 635.442 1183.01C635.442 1203.63 637.384 1223.57 641.269 1242.85C645.303 1262.12 650.757 1275.65 657.63 1283.42C662.561 1288.94 668.388 1291.71 675.111 1291.71C681.984 1291.71 688.11 1287.75 693.489 1279.83C698.868 1271.76 701.558 1255.47 701.558 1230.97C701.558 1189.73 696.552 1161.27 686.542 1145.58C680.117 1135.42 671.451 1130.34 660.543 1130.34C654.567 1130.34 646.797 1132.81 637.235 1137.74ZM1204.04 996.092V1004.38C1194.03 1005.73 1186.33 1008.64 1180.95 1013.12C1173.48 1019.4 1161.68 1036.51 1145.54 1064.45L1079.65 1174.49V1248C1079.65 1263.69 1080.47 1273.48 1082.12 1277.36C1083.76 1281.1 1086.97 1284.46 1091.75 1287.45C1096.68 1290.29 1103.18 1291.71 1111.25 1291.71H1128.28V1300H957.728V1291.71H973.641C982.605 1291.71 989.703 1290.14 994.932 1287C998.817 1284.91 1001.88 1281.32 1004.12 1276.24C1005.76 1272.66 1006.59 1263.24 1006.59 1248V1187.04L935.092 1056.83C920.897 1031.13 910.887 1016.04 905.06 1011.56C899.232 1006.92 891.463 1004.53 881.751 1004.38V996.092H1027.43V1004.38H1020.93C1012.11 1004.38 1005.91 1005.65 1002.33 1008.19C998.892 1010.73 997.173 1013.42 997.173 1016.26C997.173 1021.64 1003.15 1035.16 1015.1 1056.83L1070.01 1157.46L1124.7 1065.79C1138.29 1043.38 1145.09 1028.51 1145.09 1021.19C1145.09 1017.16 1143.15 1013.8 1139.27 1011.11C1134.19 1007.37 1124.85 1005.13 1111.25 1004.38V996.092H1204.04ZM1334.48 1013.57V1137.29H1340.53C1359.8 1137.29 1373.77 1131.24 1382.44 1119.13C1391.1 1107.03 1396.63 1089.18 1399.02 1065.57H1407.54V1224.7H1399.02C1397.23 1207.36 1393.42 1193.17 1387.59 1182.11C1381.91 1171.06 1375.27 1163.66 1367.65 1159.92C1360.03 1156.04 1348.97 1154.1 1334.48 1154.1V1239.71C1334.48 1256.45 1335.15 1266.68 1336.49 1270.42C1337.99 1274.15 1340.68 1277.21 1344.56 1279.6C1348.45 1282 1354.72 1283.19 1363.39 1283.19H1381.54C1409.93 1283.19 1432.64 1276.62 1449.67 1263.47C1466.86 1250.32 1479.18 1230.3 1486.65 1203.4H1494.95L1481.27 1300H1218.6V1291.71H1228.69C1237.51 1291.71 1244.6 1290.14 1249.98 1287C1253.87 1284.91 1256.85 1281.32 1258.95 1276.24C1260.59 1272.66 1261.41 1263.24 1261.41 1248V1048.09C1261.41 1034.34 1261.04 1025.9 1260.29 1022.76C1258.8 1017.53 1256.03 1013.5 1252 1010.66C1246.32 1006.48 1238.55 1004.38 1228.69 1004.38H1218.6V996.092H1472.98V1085.96H1464.47C1460.13 1064 1454.01 1048.24 1446.09 1038.67C1438.32 1029.11 1427.26 1022.09 1412.92 1017.61C1404.55 1014.92 1388.86 1013.57 1365.85 1013.57H1334.48ZM1706.52 1213.49H1599.16L1586.39 1243.07C1582.2 1252.93 1580.11 1261.08 1580.11 1267.5C1580.11 1276.02 1583.55 1282.29 1590.42 1286.33C1594.46 1288.72 1604.39 1290.51 1620.23 1291.71V1300H1519.15V1291.71C1530.06 1290.06 1539.02 1285.58 1546.05 1278.26C1553.07 1270.79 1561.73 1255.47 1572.04 1232.32L1680.74 989.816H1685L1794.6 1239.04C1805.06 1262.65 1813.65 1277.51 1820.37 1283.64C1825.45 1288.27 1832.62 1290.96 1841.89 1291.71V1300H1694.86V1291.71H1700.91C1712.72 1291.71 1721.01 1290.06 1725.79 1286.78C1729.08 1284.39 1730.72 1280.95 1730.72 1276.47C1730.72 1273.78 1730.27 1271.01 1729.38 1268.17C1729.08 1266.83 1726.84 1261.23 1722.65 1251.37L1706.52 1213.49ZM1698.9 1196.9L1653.62 1092.24L1607.01 1196.9H1698.9ZM1969.19 1161.49V1246.66C1969.19 1263.09 1970.16 1273.48 1972.1 1277.81C1974.19 1282 1977.78 1285.36 1982.86 1287.9C1987.94 1290.44 1997.43 1291.71 2011.32 1291.71V1300H1855.78V1291.71C1869.83 1291.71 1879.31 1290.44 1884.24 1287.9C1889.32 1285.21 1892.84 1281.77 1894.78 1277.59C1896.87 1273.4 1897.92 1263.09 1897.92 1246.66V1049.43C1897.92 1033 1896.87 1022.69 1894.78 1018.5C1892.84 1014.17 1889.32 1010.73 1884.24 1008.19C1879.16 1005.65 1869.68 1004.38 1855.78 1004.38V996.092H1996.98C2033.73 996.092 2060.63 998.632 2077.66 1003.71C2094.69 1008.79 2108.59 1018.21 2119.35 1031.95C2130.11 1045.55 2135.48 1061.54 2135.48 1079.91C2135.48 1102.33 2127.42 1120.85 2111.28 1135.5C2100.97 1144.76 2086.55 1151.71 2068.02 1156.34L2141.09 1259.21C2150.65 1272.51 2157.45 1280.8 2161.48 1284.09C2167.61 1288.72 2174.71 1291.26 2182.77 1291.71V1300H2087.07L1989.13 1161.49H1969.19ZM1969.19 1012.45V1145.58H1981.96C2002.73 1145.58 2018.27 1143.71 2028.58 1139.98C2038.89 1136.09 2046.96 1129.22 2052.78 1119.36C2058.76 1109.35 2061.75 1096.35 2061.75 1080.36C2061.75 1057.2 2056.29 1040.09 2045.39 1029.04C2034.63 1017.98 2017.22 1012.45 1993.17 1012.45H1969.19ZM2394.57 989.144L2397.03 1090.45H2387.84C2383.51 1065.05 2372.83 1044.65 2355.8 1029.26C2338.91 1013.72 2320.61 1005.95 2300.89 1005.95C2285.65 1005.95 2273.54 1010.06 2264.58 1018.28C2255.76 1026.35 2251.35 1035.69 2251.35 1046.29C2251.35 1053.02 2252.92 1059 2256.06 1064.22C2260.39 1071.25 2267.34 1078.19 2276.9 1085.07C2283.93 1090 2300.14 1098.74 2325.54 1111.29C2361.1 1128.77 2385.08 1145.28 2397.48 1160.82C2409.73 1176.36 2415.86 1194.14 2415.86 1214.16C2415.86 1239.56 2405.92 1261.45 2386.05 1279.83C2366.33 1298.06 2341.23 1307.17 2310.75 1307.17C2301.18 1307.17 2292.15 1306.2 2283.63 1304.26C2275.11 1302.32 2264.43 1298.66 2251.58 1293.28C2244.41 1290.29 2238.51 1288.79 2233.87 1288.79C2229.99 1288.79 2225.88 1290.29 2221.55 1293.28C2217.21 1296.26 2213.7 1300.82 2211.01 1306.95H2202.72V1192.2H2211.01C2217.59 1224.47 2230.21 1249.12 2248.89 1266.16C2267.72 1283.04 2287.96 1291.48 2309.63 1291.48C2326.36 1291.48 2339.66 1286.93 2349.52 1277.81C2359.53 1268.7 2364.54 1258.09 2364.54 1245.99C2364.54 1238.81 2362.59 1231.87 2358.71 1225.14C2354.97 1218.42 2349.22 1212.07 2341.45 1206.09C2333.68 1199.97 2319.94 1192.05 2300.21 1182.34C2272.57 1168.74 2252.7 1157.16 2240.6 1147.6C2228.49 1138.04 2219.16 1127.35 2212.58 1115.55C2206.16 1103.74 2202.94 1090.75 2202.94 1076.55C2202.94 1052.35 2211.83 1031.73 2229.62 1014.69C2247.4 997.661 2269.81 989.144 2296.85 989.144C2306.71 989.144 2316.28 990.339 2325.54 992.73C2332.56 994.523 2341.08 997.885 2351.09 1002.82C2361.25 1007.6 2368.35 1009.99 2372.38 1009.99C2376.27 1009.99 2379.33 1008.79 2381.57 1006.4C2383.81 1004.01 2385.9 998.258 2387.84 989.144H2394.57Z" fill="white"/>
<path fill-rule="evenodd" clip-rule="evenodd" d="M923 828C1025.17 661.768 1208.11 551 1416.78 551C1625.45 551 1808.39 661.768 1910.56 828L923 828Z" fill="#353738"/>
<path d="M1643.59 763.31L1681.57 784L1677.56 741L1700.56 712.38L1666.56 708L1643.59 671L1627.56 708L1585.56 712.38L1611.94 741V784L1643.59 763.31Z" fill="#FFBB00"/>
<path d="M1193.59 763.31L1231.57 784L1227.56 741L1250.56 712.38L1216.56 708L1193.59 671L1177.56 708L1135.56 712.38L1161.94 741V784L1193.59 763.31Z" fill="#FFBB00"/>
<path d="M1380.28 728.08L1366.95 783.87L1425.3 749.841L1464.82 783.753L1462.91 730.598L1498.02 696.532L1449.85 681.879L1425.3 636.242L1404.59 678.053L1343.01 694.552L1380.28 728.08Z" fill="#FFBB00"/>
<path fill-rule="evenodd" clip-rule="evenodd" d="M2509.5 859V834L2391.5 793L2362.5 759V590.5L2213.5 500.5L2153.5 333L1985.5 291L1887 146.5L1712 154L1577.5 51L1417.5 111L1264 51L1120.5 154H941L844 285.5L672 329L619.5 493.5L469 584.5V753.5L439 789.5L321 835.5V858L541.469 858.101C660.701 490.098 1006.28 224 1414 224C1822.02 224 2167.8 490.482 2286.79 858.898L2509.5 859ZM2259.13 858.886C2140.79 505.028 1806.68 250 1413 250C1019.61 250 685.701 504.656 567.125 858.112L2259.13 858.886ZM1415.78 550C1207.11 550 1024.17 660.768 922 827H1909.56C1807.39 660.768 1624.45 550 1415.78 550Z" fill="#FF6F00"/>
<path fill-rule="evenodd" clip-rule="evenodd" d="M1905.56 1443C1803.39 1609.23 1620.45 1720 1411.78 1720C1203.11 1720 1020.17 1609.23 918 1443H1905.56Z" fill="#353738"/>
<path d="M1184.97 1507.69L1146.99 1487L1151 1530L1128 1558.62L1162 1563L1184.97 1600L1201 1563L1243 1558.62L1216.62 1530V1487L1184.97 1507.69Z" fill="#FFBB00"/>
<path d="M1634.97 1507.69L1596.99 1487L1601 1530L1578 1558.62L1612 1563L1634.97 1600L1651 1563L1693 1558.62L1666.62 1530V1487L1634.97 1507.69Z" fill="#FFBB00"/>
<path d="M1448.28 1542.92L1461.61 1487.13L1403.26 1521.16L1363.74 1487.25L1365.65 1540.4L1330.54 1574.47L1378.71 1589.12L1403.26 1634.76L1423.97 1592.95L1485.55 1576.45L1448.28 1542.92Z" fill="#FFBB00"/>
<path fill-rule="evenodd" clip-rule="evenodd" d="M318 1412V1437L436 1478L465 1512V1680.5L614 1770.5L674 1938L842 1980L940.5 2124.5L1115.5 2117L1250 2220L1410 2160L1563.5 2220L1707 2117H1886.5L1983.5 1985.5L2155.5 1942L2208 1777.5L2358.5 1686.5V1517.5L2388.5 1481.5L2506.5 1435.5V1413L2286.03 1412.9C2166.8 1780.9 1821.22 2047 1413.5 2047C1005.48 2047 659.701 1780.52 540.711 1412.1L318 1412ZM568.366 1412.11C686.714 1765.97 1020.82 2021 1414.5 2021C1807.89 2021 2141.8 1766.34 2260.37 1412.89L568.366 1412.11ZM1411.72 1721C1620.39 1721 1803.33 1610.23 1905.5 1444L917.94 1444C1020.11 1610.23 1203.05 1721 1411.72 1721Z" fill="#FF6F00"/>
<path d="M724.635 697.417L771.205 733.687L772.979 731.41C778.629 724.154 780.447 717.121 778.432 710.311C776.417 703.501 771.317 696.185 763.131 688.364L765.628 685.158L825.527 731.81L823.03 735.016C815.981 730.61 809.52 727.882 803.65 726.834C797.824 725.73 793.09 726.065 789.45 727.838C785.754 729.567 781.781 733.16 777.532 738.615L809.759 763.715C816.059 768.622 820.108 771.369 821.909 771.958C823.753 772.491 825.694 772.376 827.733 771.615C829.772 770.853 832.062 768.842 834.602 765.579L839.924 758.746C848.247 748.06 852.431 737.583 852.475 727.317C852.563 716.994 848.641 706.484 840.707 695.787L843.138 692.666L875.491 726.132L798.483 825.007L795.361 822.576L798.318 818.78C800.903 815.461 802.393 812.33 802.789 809.385C803.14 807.309 802.667 805.133 801.368 802.857C800.5 801.187 797.197 798.118 791.46 793.649L716.207 735.039C711.033 731.009 707.745 728.675 706.345 728.036C703.939 727.065 701.61 726.923 699.358 727.609C696.119 728.52 693.054 730.831 690.163 734.543L687.206 738.34L684.084 735.909L758.662 640.155L792.492 666.503L789.995 669.709C780.457 664.901 772.727 662.585 766.806 662.763C760.929 662.884 755.044 664.987 749.151 669.072C745.686 671.433 740.58 676.945 733.834 685.606L724.635 697.417Z" fill="white"/>
<path d="M558 853.503H2235" stroke="white"/>
<path d="M913.674 585.554L981.075 609.612C992.248 613.599 999.588 615.63 1003.1 615.702C1006.62 615.675 1010.05 614.692 1013.41 612.753L1015.75 615.939L958.849 657.865L956.502 654.68C960.782 650.995 963.202 648.149 963.761 646.144C964.32 644.138 964.049 642.389 962.95 640.897C962.189 639.864 961.311 639.093 960.318 638.586C958.246 637.456 953.869 635.722 947.187 633.384L911.557 620.718L909.783 655.629C909.309 666.162 909.938 672.605 911.672 674.958C912.898 676.622 914.728 677.664 917.163 678.084C919.598 678.504 922.396 678.036 925.559 676.68C927.018 676.136 929.613 674.49 933.343 671.742L935.69 674.927L890.837 707.973L888.49 704.788C893.048 700.279 896.051 695.941 897.498 691.776C899.398 686.302 900.705 676.839 901.419 663.385L903.773 618.085L841.913 596.32C831.749 592.74 826.027 590.802 824.746 590.506C821.801 589.754 819.286 589.525 817.202 589.821C815.118 590.117 812.607 591.037 809.671 592.58L807.324 589.395L865.264 546.708L867.61 549.893L864.683 552.049C861.354 554.502 859.432 556.76 858.915 558.823C858.356 560.829 858.669 562.635 859.853 564.242C860.783 565.505 861.787 566.447 862.866 567.069L875.402 571.646L906.103 583.03L907.314 558.893C907.919 546.494 907.08 538.744 904.796 535.645C903.655 534.095 902.138 532.999 900.247 532.355C898.414 531.67 896.39 531.567 894.176 532.047C891.962 532.527 889.104 534.057 885.603 536.636L883.256 533.451L926.216 501.8L928.563 504.986C925.219 507.538 922.81 509.977 921.335 512.303C919.819 514.571 918.666 517.634 917.878 521.491C917.4 523.968 916.82 530.992 916.137 542.564L913.674 585.554Z" fill="white"/>
<path d="M1051.02 515.975L1069.79 551.53C1073.45 558.465 1076.18 562.63 1077.96 564.025C1079.78 565.325 1082.04 565.944 1084.75 565.884C1087.52 565.791 1091.81 564.213 1097.61 561.151L1099.45 564.649L1034.3 599.051L1032.45 595.552C1038.38 592.423 1042.1 589.773 1043.61 587.603C1045.16 585.337 1045.87 583.105 1045.76 580.907C1045.71 578.676 1043.86 574.093 1040.19 567.158L996.257 483.944C992.596 477.01 989.858 472.893 988.043 471.594C986.258 470.198 984.011 469.53 981.302 469.59C978.593 469.651 974.307 471.228 968.444 474.324L966.597 470.825L1022.48 441.317C1040.89 431.598 1055.83 427.902 1067.3 430.231C1078.76 432.56 1087.09 438.642 1092.29 448.476C1096.68 456.798 1097.86 465.286 1095.82 473.941C1093.78 482.597 1088.78 490.393 1080.84 497.329C1075.52 502.071 1065.58 508.286 1051.02 515.975ZM1017.87 453.186L1047.12 508.6C1049.27 507.627 1050.88 506.858 1051.95 506.292C1059.64 502.231 1064.37 496.833 1066.14 490.097C1067.87 483.298 1066.2 475.108 1061.14 465.525C1056.12 456.006 1050.36 450.139 1043.87 447.923C1037.38 445.707 1030 446.779 1021.74 451.139L1017.87 453.186Z" fill="white"/>
<path d="M1182.83 392.137L1190.98 450.6L1193.84 450.202C1202.94 448.934 1209.15 445.155 1212.45 438.865C1215.75 432.576 1217.18 423.774 1216.76 412.461L1220.78 411.901L1231.26 487.098L1227.23 487.658C1225.24 479.586 1222.51 473.129 1219.03 468.287C1215.62 463.436 1211.99 460.378 1208.14 459.115C1204.28 457.78 1198.93 457.59 1192.08 458.544L1197.72 499.002C1198.82 506.91 1199.81 511.702 1200.69 513.379C1201.64 515.046 1203.11 516.316 1205.11 517.19C1207.1 518.065 1210.14 518.216 1214.24 517.646L1222.82 516.452C1236.23 514.583 1246.53 509.982 1253.72 502.648C1260.97 495.304 1265.48 485.031 1267.24 471.83L1271.16 471.284L1271.06 517.832L1146.93 535.117L1146.38 531.198L1151.15 530.535C1155.31 529.955 1158.56 528.746 1160.9 526.91C1162.6 525.665 1163.77 523.774 1164.43 521.236C1164.97 519.433 1164.74 514.931 1163.73 507.729L1150.58 413.256C1149.67 406.76 1148.94 402.795 1148.38 401.361C1147.33 398.988 1145.76 397.264 1143.67 396.188C1140.71 394.584 1136.9 394.107 1132.24 394.756L1127.47 395.42L1126.93 391.501L1247.14 374.761L1253.05 417.232L1249.03 417.792C1245.53 407.698 1241.6 400.652 1237.23 396.654C1232.93 392.647 1227.24 390.056 1220.17 388.881C1216.04 388.161 1208.54 388.558 1197.66 390.072L1182.83 392.137Z" fill="white"/>
<path d="M1367.09 438.093L1368.6 478.699C1368.89 486.536 1369.54 491.47 1370.54 493.501C1371.61 495.459 1373.38 496.999 1375.85 498.12C1378.32 499.241 1382.86 499.679 1389.49 499.433L1389.63 503.387L1315.47 506.137L1315.33 502.184C1322.02 501.935 1326.52 501.162 1328.83 499.864C1331.2 498.491 1332.82 496.791 1333.67 494.762C1334.59 492.73 1334.91 487.796 1334.62 479.96L1331.13 385.923C1330.84 378.086 1330.16 373.189 1329.09 371.231C1328.09 369.2 1326.35 367.623 1323.88 366.502C1321.42 365.381 1316.87 364.943 1310.25 365.189L1310.1 361.235L1377.42 358.738C1394.95 358.089 1407.81 358.824 1416.03 360.945C1424.24 363.066 1431.03 367.308 1436.4 373.672C1441.77 379.965 1444.62 387.493 1444.94 396.255C1445.34 406.941 1441.82 415.918 1434.38 423.184C1429.63 427.784 1422.88 431.351 1414.13 433.887L1450.78 481.644C1455.58 487.815 1458.97 491.649 1460.95 493.145C1463.95 495.245 1467.38 496.331 1471.23 496.402L1471.38 500.356L1425.75 502.048L1376.61 437.74L1367.09 438.093ZM1364.46 367.031L1366.81 430.506L1372.9 430.28C1382.81 429.912 1390.18 428.747 1395.03 426.784C1399.88 424.749 1403.6 421.33 1406.21 416.525C1408.88 411.646 1410.08 405.395 1409.79 397.773C1409.38 386.73 1406.48 378.67 1401.09 373.591C1395.76 368.509 1387.36 366.181 1375.89 366.607L1364.46 367.031Z" fill="white"/>
<path d="M1582.73 502.435L1582.56 506.388L1506.82 503L1506.99 499.047L1511.8 499.262C1516 499.45 1519.42 498.854 1522.05 497.473C1523.95 496.558 1525.45 494.913 1526.55 492.536C1527.41 490.862 1528 486.393 1528.33 479.129L1532.59 383.839C1532.92 376.432 1532.74 371.786 1532.04 369.899C1531.34 368.012 1529.81 366.338 1527.45 364.877C1525.16 363.347 1521.99 362.492 1517.93 362.31L1513.12 362.095L1513.3 358.142L1589.04 361.531L1588.86 365.483L1584.05 365.268C1579.85 365.08 1576.43 365.677 1573.8 367.058C1571.91 367.972 1570.37 369.616 1569.19 371.989C1568.33 373.664 1567.74 378.133 1567.42 385.397L1563.15 480.686C1562.82 488.093 1563.01 492.74 1563.71 494.627C1564.48 496.516 1566.01 498.226 1568.3 499.756C1570.66 501.217 1573.87 502.039 1577.93 502.22L1582.73 502.435Z" fill="white"/>
<path d="M1713.94 403.462L1694.5 459.195L1697.23 460.146C1705.91 463.176 1713.15 462.645 1718.96 458.555C1724.77 454.465 1730.06 447.29 1734.85 437.031L1738.69 438.37L1713.68 510.055L1709.84 508.717C1711.76 500.627 1712.27 493.633 1711.38 487.737C1710.56 481.863 1708.73 477.487 1705.88 474.606C1703.06 471.658 1698.39 469.046 1691.86 466.768L1678.4 505.337C1675.77 512.875 1674.47 517.592 1674.48 519.486C1674.57 521.404 1675.3 523.206 1676.68 524.894C1678.05 526.581 1680.69 528.106 1684.59 529.468L1692.77 532.321C1705.56 536.783 1716.82 537.391 1726.56 534.144C1736.37 530.922 1745.07 523.839 1752.66 512.898L1756.4 514.201L1735.06 555.568L1616.73 514.286L1618.03 510.55L1622.57 512.135C1626.55 513.52 1629.99 513.929 1632.91 513.361C1634.98 513.029 1636.89 511.883 1638.63 509.924C1639.94 508.566 1641.79 504.455 1644.18 497.589L1675.6 407.528C1677.76 401.335 1678.92 397.474 1679.08 395.943C1679.23 393.352 1678.62 391.1 1677.25 389.187C1675.35 386.41 1672.17 384.247 1667.73 382.697L1663.19 381.112L1664.49 377.376L1779.09 417.356L1764.96 457.843L1761.13 456.504C1762.63 445.929 1762.34 437.865 1760.28 432.312C1758.28 426.783 1754.4 421.882 1748.65 417.608C1745.3 415.082 1738.44 412.01 1728.08 408.394L1713.94 403.462Z" fill="white"/>
<path d="M1877.2 465.267L1892 579.224L1924.21 525.844C1928.7 518.397 1930.67 512.716 1930.12 508.803C1929.32 503.495 1925.44 498.821 1918.47 494.782L1920.51 491.394L1961.53 516.141L1959.49 519.528C1953.83 517.033 1949.76 515.782 1947.26 515.776C1944.87 515.746 1942.41 516.639 1939.9 518.454C1937.49 520.246 1934.52 524.071 1930.98 529.931L1868.62 633.305L1865.51 631.427L1843.91 477.4L1796.29 556.327C1791.98 563.469 1790.69 569.267 1792.42 573.721C1794.2 578.212 1797.2 581.728 1801.41 584.269L1804.34 586.037L1802.3 589.425L1758.26 562.856L1760.3 559.468C1767.18 563.531 1772.78 565 1777.13 563.873C1781.47 562.746 1785.63 558.887 1789.61 552.294L1842.47 464.67L1841.8 459.771C1841.17 454.892 1840.15 451.325 1838.77 449.072C1837.38 446.82 1834.83 444.49 1831.12 442.085L1833.16 438.697L1877.2 465.267Z" fill="white"/>
<path d="M2081.28 611.145L2051.08 651.321L2047.75 648.815C2053.12 636.445 2054.49 624.898 2051.85 614.173C2049.2 603.449 2043.55 594.831 2034.89 588.32C2027.65 582.881 2019.45 579.971 2010.28 579.591C2001.12 579.21 1992.61 581.333 1984.76 585.959C1974.71 591.865 1965.71 600.09 1957.79 610.632C1949.99 621.004 1944.2 631.449 1940.39 641.967C1936.63 652.429 1935.89 661.952 1938.18 670.538C1940.51 679.066 1946.12 686.671 1955.01 693.353C1962.3 698.836 1970.17 702.252 1978.61 703.601C1987.11 704.993 1997.65 704.312 2010.24 701.559L2002.73 711.56C1991.13 713.459 1980.65 713.291 1971.27 711.057C1961.99 708.809 1952.65 704.151 1943.24 697.084C1930.88 687.789 1921.74 677.044 1915.84 664.847C1909.99 652.693 1907.94 640.002 1909.67 626.772C1911.47 613.586 1916.31 601.75 1924.19 591.264C1932.5 580.208 1943.26 571.886 1956.47 566.296C1969.73 560.75 1983.32 558.924 1997.24 560.821C2011.21 562.76 2023.72 567.885 2034.78 576.194C2042.92 582.319 2050.2 590.553 2056.61 600.897C2060.31 606.889 2062.87 610.421 2064.3 611.491C2066.12 612.862 2068.18 613.385 2070.47 613.059C2072.87 612.719 2075.36 611.246 2077.94 608.64L2081.28 611.145Z" fill="white"/>
<path d="M2135.08 691.515L2090.21 729.872L2092.09 732.067C2098.07 739.057 2104.59 742.247 2111.67 741.637C2118.74 741.028 2126.93 737.497 2136.24 731.045L2138.88 734.133L2081.17 783.469L2078.53 780.38C2084.26 774.357 2088.22 768.574 2090.43 763.033C2092.68 757.546 2093.3 752.841 2092.29 748.92C2091.34 744.952 2088.61 740.34 2084.12 735.084L2053.07 761.628C2047 766.816 2043.5 770.233 2042.56 771.879C2041.67 773.579 2041.39 775.504 2041.73 777.654C2042.07 779.804 2043.58 782.45 2046.26 785.593L2051.89 792.177C2060.69 802.472 2070.12 808.67 2080.17 810.771C2090.27 812.926 2101.35 811.189 2113.42 805.56L2115.99 808.567L2076.72 833.558L1995.28 738.298L1998.29 735.727L2001.41 739.385C2004.15 742.582 2006.92 744.669 2009.72 745.647C2011.69 746.407 2013.91 746.379 2016.4 745.563C2018.21 745.047 2021.88 742.427 2027.41 737.701L2099.91 675.719C2104.9 671.457 2107.84 668.705 2108.75 667.461C2110.18 665.298 2110.79 663.044 2110.57 660.701C2110.32 657.345 2108.67 653.879 2105.61 650.302L2102.49 646.645L2105.5 644.074L2184.36 736.326L2151.77 764.19L2149.13 761.102C2155.75 752.721 2159.57 745.612 2160.58 739.775C2161.64 733.993 2160.76 727.806 2157.94 721.214C2156.32 717.346 2151.94 711.239 2144.81 702.895L2135.08 691.515Z" fill="white"/>
<path d="M712.635 1588.11L759.205 1551.84L760.979 1554.12C766.629 1561.37 768.447 1568.4 766.432 1575.21C764.417 1582.02 759.317 1589.34 751.131 1597.16L753.628 1600.37L813.527 1553.72L811.03 1550.51C803.981 1554.92 797.52 1557.64 791.65 1558.69C785.824 1559.8 781.09 1559.46 777.45 1557.69C773.754 1555.96 769.781 1552.37 765.532 1546.91L797.759 1521.81C804.059 1516.9 808.108 1514.16 809.909 1513.57C811.753 1513.03 813.694 1513.15 815.733 1513.91C817.772 1514.67 820.062 1516.68 822.602 1519.95L827.924 1526.78C836.247 1537.47 840.431 1547.94 840.475 1558.21C840.563 1568.53 836.641 1579.04 828.707 1589.74L831.138 1592.86L863.491 1559.39L786.483 1460.52L783.361 1462.95L786.318 1466.75C788.903 1470.06 790.393 1473.2 790.789 1476.14C791.14 1478.22 790.667 1480.39 789.368 1482.67C788.5 1484.34 785.197 1487.41 779.46 1491.88L704.207 1550.49C699.033 1554.52 695.745 1556.85 694.345 1557.49C691.939 1558.46 689.61 1558.6 687.358 1557.92C684.119 1557.01 681.054 1554.69 678.163 1550.98L675.206 1547.19L672.084 1549.62L746.662 1645.37L780.492 1619.02L777.995 1615.82C768.457 1620.62 760.727 1622.94 754.806 1622.76C748.929 1622.64 743.044 1620.54 737.151 1616.45C733.686 1614.09 728.58 1608.58 721.834 1599.92L712.635 1588.11Z" fill="white"/>
<path d="M551 1436.02H2228" stroke="black"/>
<path d="M901.674 1702.97L969.075 1678.91C980.248 1674.93 987.588 1672.9 991.095 1672.82C994.617 1672.85 998.055 1673.83 1001.41 1675.77L1003.75 1672.59L946.849 1630.66L944.502 1633.85C948.782 1637.53 951.202 1640.38 951.761 1642.38C952.32 1644.39 952.049 1646.14 950.95 1647.63C950.189 1648.66 949.311 1649.43 948.318 1649.94C946.246 1651.07 941.869 1652.8 935.187 1655.14L899.557 1667.81L897.783 1632.9C897.309 1622.36 897.938 1615.92 899.672 1613.57C900.898 1611.9 902.728 1610.86 905.163 1610.44C907.598 1610.02 910.396 1610.49 913.559 1611.85C915.018 1612.39 917.613 1614.04 921.343 1616.78L923.69 1613.6L878.837 1580.55L876.49 1583.74C881.048 1588.25 884.051 1592.58 885.498 1596.75C887.398 1602.22 888.705 1611.69 889.419 1625.14L891.773 1670.44L829.913 1692.21C819.749 1695.79 814.027 1697.72 812.746 1698.02C809.801 1698.77 807.286 1699 805.202 1698.7C803.118 1698.41 800.607 1697.49 797.671 1695.95L795.324 1699.13L853.264 1741.82L855.61 1738.63L852.683 1736.48C849.354 1734.02 847.432 1731.77 846.915 1729.7C846.356 1727.7 846.669 1725.89 847.853 1724.28C848.783 1723.02 849.787 1722.08 850.866 1721.46L863.402 1716.88L894.103 1705.5L895.314 1729.63C895.919 1742.03 895.08 1749.78 892.796 1752.88C891.655 1754.43 890.138 1755.53 888.247 1756.17C886.414 1756.86 884.39 1756.96 882.176 1756.48C879.962 1756 877.104 1754.47 873.603 1751.89L871.256 1755.07L914.216 1786.73L916.563 1783.54C913.219 1780.99 910.81 1778.55 909.335 1776.22C907.819 1773.95 906.666 1770.89 905.878 1767.03C905.4 1764.56 904.82 1757.53 904.137 1745.96L901.674 1702.97Z" fill="white"/>
<path d="M1026.15 1789.35L1003.01 1822.22C998.491 1828.64 996.017 1832.95 995.585 1835.18C995.252 1837.39 995.727 1839.68 997.012 1842.07C998.354 1844.5 1001.71 1847.6 1007.07 1851.37L1004.79 1854.61L944.548 1812.19L946.826 1808.96C952.305 1812.81 956.356 1814.93 958.977 1815.29C961.698 1815.64 964.011 1815.26 965.918 1814.16C967.883 1813.1 971.123 1809.37 975.638 1802.96L1029.81 1726.01C1034.33 1719.6 1036.75 1715.29 1037.08 1713.08C1037.52 1710.86 1037.09 1708.56 1035.81 1706.17C1034.52 1703.78 1031.17 1700.68 1025.75 1696.86L1028.02 1693.63L1079.7 1730.01C1096.72 1742 1106.8 1753.62 1109.93 1764.9C1113.07 1776.17 1111.43 1786.36 1105.03 1795.45C1099.61 1803.15 1092.59 1808.05 1083.95 1810.16C1075.31 1812.28 1066.1 1811.37 1056.31 1807.44C1049.67 1804.86 1039.62 1798.83 1026.15 1789.35ZM1067.03 1731.29L1030.95 1782.53C1032.8 1784 1034.21 1785.08 1035.2 1785.78C1042.31 1790.79 1049.27 1792.55 1056.07 1791.06C1062.92 1789.51 1069.46 1784.31 1075.69 1775.45C1081.89 1766.65 1084.5 1758.85 1083.53 1752.06C1082.55 1745.27 1078.25 1739.19 1070.61 1733.82L1067.03 1731.29Z" fill="white"/>
<path d="M1173.83 1922.38L1181.98 1863.92L1184.84 1864.32C1193.94 1865.59 1200.15 1869.37 1203.45 1875.66C1206.75 1881.95 1208.18 1890.75 1207.76 1902.06L1211.78 1902.62L1222.26 1827.42L1218.23 1826.86C1216.24 1834.94 1213.51 1841.39 1210.03 1846.23C1206.62 1851.09 1202.99 1854.14 1199.14 1855.41C1195.28 1856.74 1189.93 1856.93 1183.08 1855.98L1188.72 1815.52C1189.82 1807.61 1190.81 1802.82 1191.69 1801.14C1192.64 1799.48 1194.11 1798.2 1196.11 1797.33C1198.1 1796.46 1201.14 1796.3 1205.24 1796.87L1213.82 1798.07C1227.23 1799.94 1237.53 1804.54 1244.72 1811.87C1251.97 1819.22 1256.48 1829.49 1258.24 1842.69L1262.16 1843.24L1262.06 1796.69L1137.93 1779.4L1137.38 1783.32L1142.15 1783.99C1146.31 1784.57 1149.56 1785.77 1151.9 1787.61C1153.6 1788.86 1154.77 1790.75 1155.43 1793.29C1155.97 1795.09 1155.74 1799.59 1154.73 1806.79L1141.58 1901.27C1140.67 1907.76 1139.94 1911.73 1139.38 1913.16C1138.33 1915.53 1136.76 1917.26 1134.67 1918.33C1131.71 1919.94 1127.9 1920.41 1123.24 1919.76L1118.47 1919.1L1117.93 1923.02L1238.14 1939.76L1244.05 1897.29L1240.03 1896.73C1236.53 1906.82 1232.6 1913.87 1228.23 1917.87C1223.93 1921.87 1218.24 1924.47 1211.17 1925.64C1207.04 1926.36 1199.54 1925.96 1188.66 1924.45L1173.83 1922.38Z" fill="white"/>
<path d="M1348.25 1884.61L1345.51 1925.15C1344.98 1932.98 1345.11 1937.95 1345.9 1940.08C1346.76 1942.14 1348.36 1943.85 1350.69 1945.22C1353.03 1946.6 1357.51 1947.51 1364.12 1947.95L1363.86 1951.9L1289.81 1946.9L1290.08 1942.95C1296.76 1943.4 1301.32 1943.1 1303.75 1942.05C1306.26 1940.93 1308.04 1939.41 1309.1 1937.48C1310.23 1935.56 1311.06 1930.68 1311.59 1922.86L1317.93 1828.97C1318.46 1821.15 1318.29 1816.21 1317.43 1814.15C1316.65 1812.02 1315.09 1810.27 1312.75 1808.9C1310.41 1807.53 1305.94 1806.62 1299.32 1806.17L1299.59 1802.22L1366.81 1806.77C1384.3 1807.95 1397.02 1810.02 1404.97 1812.99C1412.91 1815.96 1419.23 1820.89 1423.9 1827.77C1428.59 1834.59 1430.63 1842.38 1430.04 1851.13C1429.32 1861.79 1424.88 1870.35 1416.73 1876.81C1411.53 1880.88 1404.44 1883.73 1395.47 1885.34L1426.94 1936.66C1431.07 1943.3 1434.03 1947.46 1435.85 1949.16C1438.62 1951.56 1441.91 1953 1445.74 1953.47L1445.47 1957.42L1399.92 1954.34L1357.75 1885.25L1348.25 1884.61ZM1353.05 1813.66L1348.77 1877.04L1354.85 1877.45C1364.73 1878.11 1372.19 1877.73 1377.22 1876.28C1382.25 1874.76 1386.31 1871.75 1389.41 1867.24C1392.57 1862.67 1394.41 1856.58 1394.93 1848.97C1395.67 1837.94 1393.63 1829.62 1388.79 1824.01C1384.03 1818.4 1375.92 1815.21 1364.47 1814.43L1353.05 1813.66Z" fill="white"/>
<path d="M1565.89 1805.62L1565.77 1801.67L1489.99 1803.98L1490.11 1807.94L1494.92 1807.79C1499.12 1807.66 1502.53 1808.31 1505.14 1809.72C1507.03 1810.66 1508.5 1812.33 1509.57 1814.72C1510.41 1816.41 1510.94 1820.89 1511.16 1828.16L1514.07 1923.5C1514.3 1930.91 1514.04 1935.55 1513.32 1937.43C1512.59 1939.3 1511.04 1940.95 1508.65 1942.38C1506.35 1943.88 1503.16 1944.69 1499.1 1944.81L1494.29 1944.96L1494.41 1948.92L1570.19 1946.6L1570.07 1942.65L1565.26 1942.8C1561.06 1942.92 1557.65 1942.28 1555.04 1940.86C1553.16 1939.92 1551.64 1938.25 1550.5 1935.86C1549.66 1934.18 1549.14 1929.7 1548.91 1922.43L1546 1827.09C1545.78 1819.68 1546.03 1815.04 1546.76 1813.16C1547.56 1811.28 1549.11 1809.59 1551.42 1808.1C1553.8 1806.67 1557.02 1805.89 1561.08 1805.77L1565.89 1805.62Z" fill="white"/>
<path d="M1698.94 1901.06L1679.5 1845.33L1682.23 1844.38C1690.91 1841.35 1698.15 1841.88 1703.96 1845.97C1709.77 1850.06 1715.06 1857.24 1719.85 1867.49L1723.69 1866.16L1698.68 1794.47L1694.84 1795.81C1696.76 1803.9 1697.27 1810.89 1696.38 1816.79C1695.56 1822.66 1693.73 1827.04 1690.88 1829.92C1688.06 1832.87 1683.39 1835.48 1676.86 1837.76L1663.4 1799.19C1660.77 1791.65 1659.47 1786.93 1659.48 1785.04C1659.57 1783.12 1660.3 1781.32 1661.68 1779.63C1663.05 1777.94 1665.69 1776.42 1669.59 1775.06L1677.77 1772.2C1690.56 1767.74 1701.82 1767.14 1711.56 1770.38C1721.37 1773.6 1730.07 1780.69 1737.66 1791.63L1741.4 1790.33L1720.06 1748.96L1601.73 1790.24L1603.03 1793.98L1607.57 1792.39C1611.55 1791.01 1614.99 1790.6 1617.91 1791.16C1619.98 1791.5 1621.89 1792.64 1623.63 1794.6C1624.94 1795.96 1626.79 1800.07 1629.18 1806.94L1660.6 1897C1662.76 1903.19 1663.92 1907.05 1664.08 1908.58C1664.23 1911.17 1663.62 1913.43 1662.25 1915.34C1660.35 1918.12 1657.17 1920.28 1652.73 1921.83L1648.19 1923.41L1649.49 1927.15L1764.09 1887.17L1749.96 1846.68L1746.13 1848.02C1747.63 1858.6 1747.34 1866.66 1745.28 1872.21C1743.28 1877.74 1739.4 1882.64 1733.65 1886.92C1730.3 1889.44 1723.44 1892.52 1713.08 1896.13L1698.94 1901.06Z" fill="white"/>
<path d="M1788.94 1709.71L1893.86 1756.59L1865.15 1701.25C1861.14 1693.53 1857.33 1688.89 1853.7 1687.31C1848.76 1685.22 1842.75 1686.09 1835.66 1689.93L1833.84 1686.41L1876.36 1664.35L1878.19 1667.87C1873.11 1671.38 1869.91 1674.21 1868.6 1676.33C1867.33 1678.36 1866.81 1680.92 1867.04 1684.01C1867.31 1687 1869.02 1691.53 1872.17 1697.61L1927.77 1804.77L1924.54 1806.45L1781.91 1744.44L1824.35 1826.26C1828.19 1833.66 1832.46 1837.79 1837.16 1838.65C1841.93 1839.47 1846.49 1838.75 1850.86 1836.48L1853.9 1834.91L1855.72 1838.42L1810.06 1862.1L1808.24 1858.59C1815.29 1854.85 1819.48 1850.84 1820.78 1846.54C1822.09 1842.25 1820.97 1836.69 1817.42 1829.85L1770.3 1739.02L1765.77 1737.03C1761.28 1735.02 1757.71 1734.02 1755.06 1734.03C1752.42 1734.04 1749.1 1735 1745.11 1736.91L1743.29 1733.39L1788.94 1709.71Z" fill="white"/>
<path d="M2081.28 1674.38L2051.08 1634.2L2047.75 1636.71C2053.12 1649.08 2054.49 1660.63 2051.85 1671.35C2049.2 1682.08 2043.55 1690.69 2034.89 1697.2C2027.65 1702.64 2019.45 1705.55 2010.28 1705.93C2001.12 1706.32 1992.61 1704.19 1984.76 1699.57C1974.71 1693.66 1965.71 1685.44 1957.79 1674.89C1949.99 1664.52 1944.2 1654.08 1940.39 1643.56C1936.63 1633.1 1935.89 1623.57 1938.18 1614.99C1940.51 1606.46 1946.12 1598.85 1955.01 1592.17C1962.3 1586.69 1970.17 1583.27 1978.61 1581.92C1987.11 1580.53 1997.65 1581.21 2010.24 1583.97L2002.73 1573.97C1991.13 1572.07 1980.65 1572.23 1971.27 1574.47C1961.99 1576.72 1952.65 1581.37 1943.24 1588.44C1930.88 1597.74 1921.74 1608.48 1915.84 1620.68C1909.99 1632.83 1907.94 1645.52 1909.67 1658.75C1911.47 1671.94 1916.31 1683.78 1924.19 1694.26C1932.5 1705.32 1943.26 1713.64 1956.47 1719.23C1969.73 1724.78 1983.32 1726.6 1997.24 1724.7C2011.21 1722.77 2023.72 1717.64 2034.78 1709.33C2042.92 1703.21 2050.2 1694.97 2056.61 1684.63C2060.31 1678.64 2062.87 1675.1 2064.3 1674.03C2066.12 1672.66 2068.18 1672.14 2070.47 1672.47C2072.87 1672.81 2075.36 1674.28 2077.94 1676.89L2081.28 1674.38Z" fill="white"/>
<path d="M2129.08 1590.01L2084.21 1551.65L2086.09 1549.46C2092.07 1542.47 2098.59 1539.28 2105.67 1539.89C2112.74 1540.5 2120.93 1544.03 2130.24 1550.48L2132.88 1547.39L2075.17 1498.06L2072.53 1501.14C2078.26 1507.17 2082.22 1512.95 2084.43 1518.49C2086.68 1523.98 2087.3 1528.68 2086.29 1532.61C2085.34 1536.57 2082.61 1541.19 2078.12 1546.44L2047.07 1519.9C2041 1514.71 2037.5 1511.29 2036.56 1509.65C2035.67 1507.95 2035.39 1506.02 2035.73 1503.87C2036.07 1501.72 2037.58 1499.08 2040.26 1495.93L2045.89 1489.35C2054.69 1479.05 2064.12 1472.86 2074.17 1470.75C2084.27 1468.6 2095.35 1470.34 2107.42 1475.97L2109.99 1472.96L2070.72 1447.97L1989.28 1543.23L1992.29 1545.8L1995.41 1542.14C1998.15 1538.94 2000.92 1536.86 2003.72 1535.88C2005.69 1535.12 2007.91 1535.15 2010.4 1535.96C2012.21 1536.48 2015.88 1539.1 2021.41 1543.82L2093.91 1605.81C2098.9 1610.07 2101.84 1612.82 2102.75 1614.06C2104.18 1616.23 2104.79 1618.48 2104.57 1620.82C2104.32 1624.18 2102.67 1627.65 2099.61 1631.22L2096.49 1634.88L2099.5 1637.45L2178.36 1545.2L2145.77 1517.33L2143.13 1520.42C2149.75 1528.8 2153.57 1535.91 2154.58 1541.75C2155.64 1547.53 2154.76 1553.72 2151.94 1560.31C2150.32 1564.18 2145.94 1570.29 2138.81 1578.63L2129.08 1590.01Z" fill="white"/>
</svg>
