<svg xmlns="http://www.w3.org/2000/svg" width="91" height="96.771" viewBox="0 0 91 96.771">
  <g id="shoppaymentorderbuy-04_icon-icons.com_73886" transform="translate(-6.5 -2.8)">
    <g id="Group_164" data-name="Group 164" transform="translate(6.5 2.8)">
      <g id="Group_147" data-name="Group 147" transform="translate(0.949 24.667)">
        <path id="Path_539" data-name="Path 539" d="M90.794,57.719,13.63,45.859A5.973,5.973,0,0,1,7.7,39.93h0A5.973,5.973,0,0,1,13.63,34H78.856A11.843,11.843,0,0,1,90.715,45.859V57.719Z" transform="translate(-7.7 -34)" fill="#e8e8e8"/>
      </g>
      <g id="Group_148" data-name="Group 148" transform="translate(0 23.639)">
        <path id="Path_540" data-name="Path 540" d="M90.543,58.4h-.158L13.378,46.536A6.918,6.918,0,0,1,13.457,32.7H78.683A12.8,12.8,0,0,1,91.491,45.508V57.367a1,1,0,0,1-.316.712A.945.945,0,0,1,90.543,58.4ZM13.378,34.677a4.9,4.9,0,0,0,0,9.8h.158l75.978,11.7V45.587A10.932,10.932,0,0,0,78.6,34.677Z" transform="translate(-6.5 -32.7)" fill="#62355c"/>
      </g>
      <g id="Group_149" data-name="Group 149" transform="translate(77.797 42.456)">
        <path id="Path_541" data-name="Path 541" d="M111.146,56.5H104.9V68.359h6.246a5.973,5.973,0,0,0,5.93-5.93h0A6.025,6.025,0,0,0,111.146,56.5Z" transform="translate(-104.9 -56.5)" fill="#e8e8e8"/>
      </g>
      <g id="Group_150" data-name="Group 150" transform="translate(76.848 41.586)">
        <path id="Path_542" data-name="Path 542" d="M110.895,69.157h-6.246a.961.961,0,0,1-.949-.949V56.349a.961.961,0,0,1,.949-.949h6.246a6.968,6.968,0,0,1,6.957,6.957A6.834,6.834,0,0,1,110.895,69.157ZM105.6,67.1h5.3a4.9,4.9,0,1,0,0-9.8h-5.3Z" transform="translate(-103.7 -55.4)" fill="#62355c"/>
      </g>
      <g id="Group_158" data-name="Group 158" transform="translate(20.714)">
        <g id="Group_151" data-name="Group 151" transform="translate(1.028 0.949)">
          <circle id="Ellipse_72" data-name="Ellipse 72" cx="20.714" cy="20.714" r="20.714" fill="#f6cd29"/>
        </g>
        <g id="Group_152" data-name="Group 152" transform="translate(1.028 0.949)">
          <circle id="Ellipse_73" data-name="Ellipse 73" cx="20.714" cy="20.714" r="20.714" fill="#fee444"/>
        </g>
        <g id="Group_153" data-name="Group 153">
          <path id="Path_543" data-name="Path 543" d="M54.442,46.284A21.742,21.742,0,1,1,76.184,24.542,21.73,21.73,0,0,1,54.442,46.284Zm0-41.586A19.765,19.765,0,1,0,74.207,24.463,19.773,19.773,0,0,0,54.442,4.7Z" transform="translate(-32.7 -2.8)" fill="#62355c"/>
        </g>
        <g id="Group_154" data-name="Group 154" transform="translate(5.692 5.613)" opacity="0.3">
          <path id="Path_544" data-name="Path 544" d="M55.95,9.9A16.089,16.089,0,1,0,72,26.029,16.061,16.061,0,0,0,55.95,9.9Z" transform="translate(-39.9 -9.9)" fill="#f6f7f6"/>
        </g>
        <g id="Group_155" data-name="Group 155" transform="translate(4.665 4.665)">
          <path id="Path_545" data-name="Path 545" d="M55.677,42.776a17.038,17.038,0,1,1,17.077-17A17.107,17.107,0,0,1,55.677,42.776Zm0-32.1a15.1,15.1,0,1,0,15.1,15.1A15.15,15.15,0,0,0,55.677,10.677Z" transform="translate(-38.6 -8.7)" fill="#62355c"/>
        </g>
        <g id="Group_156" data-name="Group 156" transform="translate(16.366 10.515)">
          <path id="Path_546" data-name="Path 546" d="M62.1,27.406a6.332,6.332,0,0,0-1.818-.791c-.553-.158-1.107-.316-1.739-.474-.553-.158-1.028-.316-1.5-.474a4.482,4.482,0,0,1-1.028-.632,2.478,2.478,0,0,1-.632-.87,4.232,4.232,0,0,1-.237-1.423,3.172,3.172,0,0,1,.237-1.186,2.016,2.016,0,0,1,.632-.949,2.249,2.249,0,0,1,1.107-.712,5.168,5.168,0,0,1,1.66-.316,3.135,3.135,0,0,1,1.581.316,3.381,3.381,0,0,1,1.028.712,5.04,5.04,0,0,1,.632,1.107.925.925,0,1,0,1.739-.632,6.136,6.136,0,0,0-.949-1.739,5.158,5.158,0,0,0-1.66-1.265,7.483,7.483,0,0,0-1.423-.4v-.632a.949.949,0,0,0-1.9,0v.632a3.76,3.76,0,0,0-1.423.4,4.363,4.363,0,0,0-1.66,1.107,4.942,4.942,0,0,0-1.028,1.581,4.639,4.639,0,0,0-.316,1.818,5.839,5.839,0,0,0,.4,2.214A3.56,3.56,0,0,0,54.9,26.3a5.263,5.263,0,0,0,1.581.949,11.2,11.2,0,0,0,1.739.553l1.66.474a7.008,7.008,0,0,1,1.344.632,2.725,2.725,0,0,1,.949.949,3.114,3.114,0,0,1,.4,1.581,3.693,3.693,0,0,1-.237,1.344,3.1,3.1,0,0,1-.632,1.107,2.408,2.408,0,0,1-1.028.712,4.442,4.442,0,0,1-1.581.237,3.83,3.83,0,0,1-1.423-.237,3.65,3.65,0,0,1-1.186-.712,3.953,3.953,0,0,1-.87-1.265.9.9,0,0,0-1.66.712,4.852,4.852,0,0,0,1.344,1.9,6.242,6.242,0,0,0,1.818,1.107c.237.079.553.158.87.237v.712a.949.949,0,1,0,1.9,0v-.632a5.162,5.162,0,0,0,1.581-.4A5.632,5.632,0,0,0,63.2,35.075a4.833,4.833,0,0,0,1.028-1.739,5.315,5.315,0,0,0,.316-1.9,4.788,4.788,0,0,0-.632-2.53C63.2,28.355,62.729,27.8,62.1,27.406Z" transform="translate(-53.4 -16.1)" fill="#62355c"/>
        </g>
        <g id="Group_157" data-name="Group 157" transform="translate(21.742 29.332)">
          <path id="Path_547" data-name="Path 547" d="M60.2,39.9" transform="translate(-60.2 -39.9)" fill="none" stroke="#404243" stroke-linecap="round" stroke-linejoin="round" stroke-miterlimit="10" stroke-width="2.5"/>
        </g>
      </g>
      <path id="Path_548" data-name="Path 548" d="M35.9,40a20.728,20.728,0,0,0,38.5,0Z" transform="translate(-12.656 -10.589)" fill="#593055" opacity="0.2"/>
      <g id="Group_159" data-name="Group 159" transform="translate(1.028 30.597)">
        <path id="Path_549" data-name="Path 549" d="M78.956,47.43H13.73A5.973,5.973,0,0,1,7.8,41.5V94.867a11.843,11.843,0,0,0,11.859,11.859h59.3A11.843,11.843,0,0,0,90.815,94.867V59.289A11.894,11.894,0,0,0,78.956,47.43Z" transform="translate(-7.8 -41.5)" fill="#fb0"/>
      </g>
      <path id="Path_550" data-name="Path 550" d="M17.287,94.867V47.43H13.73A5.973,5.973,0,0,1,7.8,41.5V94.867a11.843,11.843,0,0,0,11.859,11.859h9.487A11.843,11.843,0,0,1,17.287,94.867Z" transform="translate(-6.772 -10.903)" fill="#593055" opacity="0.2"/>
      <g id="Group_160" data-name="Group 160" transform="translate(0.079 29.648)">
        <path id="Path_551" data-name="Path 551" d="M78.7,107.423h-59.3A12.8,12.8,0,0,1,6.6,94.615V41.249a.949.949,0,1,1,1.9,0,4.926,4.926,0,0,0,4.9,4.9H78.625A12.8,12.8,0,0,1,91.433,58.959V94.536A12.706,12.706,0,0,1,78.7,107.423ZM8.5,46.071V94.615a10.932,10.932,0,0,0,10.911,10.911H78.7A10.932,10.932,0,0,0,89.615,94.615V59.038A10.932,10.932,0,0,0,78.7,48.127H13.4A6.937,6.937,0,0,1,8.5,46.071Z" transform="translate(-6.6 -40.3)" fill="#62355c"/>
      </g>
      <g id="Group_161" data-name="Group 161" transform="translate(60.298 48.386)">
        <path id="Path_552" data-name="Path 552" d="M106.512,69.93H94.969A12.036,12.036,0,0,0,82.793,81a11.794,11.794,0,0,0,9.329,12.334h14.468a5.973,5.973,0,0,0,5.93-5.93V64A6.149,6.149,0,0,1,106.512,69.93Z" transform="translate(-82.767 -64)" fill="#65c5b4"/>
      </g>
      <g id="Group_162" data-name="Group 162" transform="translate(60.3 48.386)">
        <path id="Path_553" data-name="Path 553" d="M106.512,69.93H94.969A12.036,12.036,0,0,0,82.794,81a11.421,11.421,0,0,0,11.78,12.334h11.938a5.973,5.973,0,0,0,5.93-5.93V64A6.025,6.025,0,0,1,106.512,69.93Z" transform="translate(-82.77 -64)" fill="#e8e8e8"/>
      </g>
      <g id="Group_163" data-name="Group 163" transform="translate(59.273 47.516)">
        <path id="Path_554" data-name="Path 554" d="M106.24,94.129H94.3A12.436,12.436,0,0,1,81.494,80.768,13.077,13.077,0,0,1,94.7,68.751H106.24a4.926,4.926,0,0,0,4.9-4.9.961.961,0,0,1,.949-.949,1.02,1.02,0,0,1,.949.949V87.33A6.749,6.749,0,0,1,106.24,94.129Zm-11.622-23.4a10.968,10.968,0,0,0-9.646,16.682,10.8,10.8,0,0,0,9.25,4.823h11.938a4.927,4.927,0,0,0,4.9-4.9V68.592a6.937,6.937,0,0,1-4.9,2.056H94.618Z" transform="translate(-81.47 -62.9)" fill="#62355c"/>
      </g>
    </g>
    <g id="Group_165" data-name="Group 165" transform="translate(72.675 63.045)">
      <circle id="Ellipse_74" data-name="Ellipse 74" cx="5.93" cy="5.93" r="5.93" fill="#fee444"/>
    </g>
    <g id="Group_166" data-name="Group 166" transform="translate(72.675 63.045)">
      <circle id="Ellipse_75" data-name="Ellipse 75" cx="5.93" cy="5.93" r="5.93" fill="#4e5458"/>
    </g>
    <g id="Group_167" data-name="Group 167" transform="translate(71.647 61.938)">
      <path id="Path_555" data-name="Path 555" d="M95.857,91.515a6.957,6.957,0,1,1,6.957-6.957A6.968,6.968,0,0,1,95.857,91.515Zm0-11.859a4.9,4.9,0,1,0,4.9,4.9A4.926,4.926,0,0,0,95.857,79.656Z" transform="translate(-88.9 -77.6)" fill="#62355c"/>
    </g>
  </g>
</svg>
