<svg xmlns="http://www.w3.org/2000/svg" width="108.569" height="66.342" viewBox="0 0 108.569 66.342">
  <g id="Group_15" data-name="Group 15" transform="translate(-5.612 218.521)">
    <path id="Path_250" data-name="Path 250" d="M130.828-36.96h34.189V-50.1H130.828Z" transform="translate(-85.862 -116.219)" fill="#fb0"/>
    <path id="Path_251" data-name="Path 251" d="M130.828-36.96h34.189V-50.1H130.828Z" transform="translate(-85.862 -116.219)" fill="none" stroke="#fb0" stroke-miterlimit="2" stroke-width="2"/>
    <path id="Path_252" data-name="Path 252" d="M105.073-173.208a9.929,9.929,0,0,0-2.477,9.42,46.12,46.12,0,0,0,11.138,17.28v8.331h29.085v-7.809l3.961-3.435a7.994,7.994,0,0,0,2.826-5.989v-21.572H134.228" transform="translate(-66.043 -28.141)" fill="#353738"/>
    <path id="Path_253" data-name="Path 253" d="M105.073-173.208a9.929,9.929,0,0,0-2.477,9.42,46.12,46.12,0,0,0,11.138,17.28v8.331h29.085v-7.809l3.961-3.435a7.994,7.994,0,0,0,2.826-5.989v-21.572H134.228" transform="translate(-66.043 -28.141)" fill="none" stroke="#fff" stroke-miterlimit="2" stroke-width="2"/>
    <path id="Path_254" data-name="Path 254" d="M85.663-208.371c-.076-.006-.144-.012-.223-.012H35.091a4.582,4.582,0,0,0-.881.084,14.667,14.667,0,0,0-13.619-9.221A14.672,14.672,0,0,0,7.138-208.7H20.591v11.683H7.138a14.672,14.672,0,0,0,13.454,8.825A14.671,14.671,0,0,0,34.21-197.41a4.68,4.68,0,0,0,.881.086H85.44c.046,0,.083-.008.128-.008A14.664,14.664,0,0,0,99.2-188.063a14.669,14.669,0,0,0,13.454-8.825H99.2v-11.685h13.454A14.667,14.667,0,0,0,99.2-217.4,14.667,14.667,0,0,0,85.663-208.371Z" transform="translate(0)" fill="#353738"/>
    <path id="Path_255" data-name="Path 255" d="M85.663-208.371c-.076-.006-.144-.012-.223-.012H35.091a4.582,4.582,0,0,0-.881.084,14.667,14.667,0,0,0-13.619-9.221A14.672,14.672,0,0,0,7.138-208.7H20.591v11.683H7.138a14.672,14.672,0,0,0,13.454,8.825A14.671,14.671,0,0,0,34.21-197.41a4.68,4.68,0,0,0,.881.086H85.44c.046,0,.083-.008.128-.008A14.664,14.664,0,0,0,99.2-188.063a14.669,14.669,0,0,0,13.454-8.825H99.2v-11.685h13.454A14.667,14.667,0,0,0,99.2-217.4,14.667,14.667,0,0,0,85.663-208.371Z" transform="translate(0)" fill="none" stroke="#fb0" stroke-miterlimit="2" stroke-width="2"/>
    <path id="Path_256" data-name="Path 256" d="M148.373-174.084a1.446,1.446,0,0,1,1.444,1.444,1.444,1.444,0,0,1-1.444,1.443H104.278a1.445,1.445,0,0,1-1.45-1.443,1.447,1.447,0,0,1,1.45-1.444Z" transform="translate(-66.425 -30.153)" fill="#fff"/>
    <path id="Path_257" data-name="Path 257" d="M148.373-174.084a1.446,1.446,0,0,1,1.444,1.444,1.444,1.444,0,0,1-1.444,1.443H104.278a1.445,1.445,0,0,1-1.45-1.443,1.447,1.447,0,0,1,1.45-1.444Z" transform="translate(-66.425 -30.153)" fill="#353738" stroke="#fb0" stroke-miterlimit="2" stroke-width="2"/>
    <path id="Path_258" data-name="Path 258" d="M53.528-204.88a10.739,10.739,0,0,1,10.484,10.988" transform="translate(-32.202 -8.775)" fill="none" stroke="#fb0" stroke-miterlimit="2" stroke-width="2"/>
    <path id="Path_259" data-name="Path 259" d="M291.215-158.782a10.743,10.743,0,0,1-10.484-10.989" transform="translate(-189.918 -33.147)" fill="none" stroke="#fb0" stroke-miterlimit="2" stroke-width="2"/>
    <path id="Path_260" data-name="Path 260" d="M148.561-198.565a4.408,4.408,0,0,1-4.41,4.411,4.412,4.412,0,0,1-4.413-4.411v-8.256a4.413,4.413,0,0,1,4.413-4.411,4.409,4.409,0,0,1,4.41,4.411Z" transform="translate(-92.047 -4.366)" fill="#353738"/>
    <path id="Path_261" data-name="Path 261" d="M148.561-198.565a4.408,4.408,0,0,1-4.41,4.411,4.412,4.412,0,0,1-4.413-4.411v-8.256a4.413,4.413,0,0,1,4.413-4.411,4.409,4.409,0,0,1,4.41,4.411Z" transform="translate(-92.047 -4.366)" fill="none" stroke="#fff" stroke-miterlimit="2" stroke-width="2"/>
    <path id="Path_262" data-name="Path 262" d="M179.328-203.553a4.412,4.412,0,0,1-4.41,4.411,4.412,4.412,0,0,1-4.41-4.411v-9.557a4.41,4.41,0,0,1,4.41-4.411,4.41,4.41,0,0,1,4.41,4.411Z" transform="translate(-113.406)" fill="#353738"/>
    <path id="Path_263" data-name="Path 263" d="M179.328-203.553a4.412,4.412,0,0,1-4.41,4.411,4.412,4.412,0,0,1-4.41-4.411v-9.557a4.41,4.41,0,0,1,4.41-4.411,4.41,4.41,0,0,1,4.41,4.411Z" transform="translate(-113.406)" fill="none" stroke="#fff" stroke-miterlimit="2" stroke-width="2"/>
    <path id="Path_264" data-name="Path 264" d="M208.168-200.769a4.411,4.411,0,0,1-4.41,4.409,4.409,4.409,0,0,1-4.41-4.409v-6.052a4.408,4.408,0,0,1,4.41-4.411,4.41,4.41,0,0,1,4.41,4.411Z" transform="translate(-133.426 -4.366)" fill="#353738"/>
    <path id="Path_265" data-name="Path 265" d="M208.168-200.769a4.411,4.411,0,0,1-4.41,4.409,4.409,4.409,0,0,1-4.41-4.409v-6.052a4.408,4.408,0,0,1,4.41-4.411,4.41,4.41,0,0,1,4.41,4.411Z" transform="translate(-133.426 -4.366)" fill="none" stroke="#fff" stroke-miterlimit="2" stroke-width="2"/>
    <path id="Path_266" data-name="Path 266" d="M237.008-196.348a4.411,4.411,0,0,1-4.407,4.411,4.412,4.412,0,0,1-4.413-4.411v-4.123a4.41,4.41,0,0,1,4.413-4.409,4.409,4.409,0,0,1,4.407,4.409Z" transform="translate(-153.446 -8.775)" fill="#353738"/>
    <path id="Path_267" data-name="Path 267" d="M237.008-196.348a4.411,4.411,0,0,1-4.407,4.411,4.412,4.412,0,0,1-4.413-4.411v-4.123a4.41,4.41,0,0,1,4.413-4.409,4.409,4.409,0,0,1,4.407,4.409Z" transform="translate(-153.446 -8.775)" fill="none" stroke="#fff" stroke-miterlimit="2" stroke-width="2"/>
    <path id="Path_268" data-name="Path 268" d="M122.943-158.45c1.67-13.276-9.407-16.321-9.407-16.321h12.811c5.808-1.252,5.808-8.538,5.808-8.538H112.031l-6.768,5.709a11.33,11.33,0,0,0-2.477,9.42,46.432,46.432,0,0,0,11.138,17.28" transform="translate(-66.233 -23.748)" fill="#353738"/>
    <path id="Path_269" data-name="Path 269" d="M122.943-158.45c1.67-13.276-9.407-16.321-9.407-16.321h12.811c5.808-1.252,5.808-8.538,5.808-8.538H112.031l-6.768,5.709a11.33,11.33,0,0,0-2.477,9.42,46.432,46.432,0,0,0,11.138,17.28" transform="translate(-66.233 -23.748)" fill="none" stroke="#fff" stroke-linejoin="round" stroke-miterlimit="2" stroke-width="2"/>
    <path id="Path_270" data-name="Path 270" d="M222.336-33.936a2.346,2.346,0,0,1-2.346,2.344,2.343,2.343,0,0,1-2.343-2.344,2.344,2.344,0,0,1,2.343-2.343A2.347,2.347,0,0,1,222.336-33.936Z" transform="translate(-146.13 -125.813)" fill="#fff" stroke="#fb0" stroke-linejoin="round" stroke-miterlimit="2" stroke-width="6.384"/>
    <path id="Path_271" data-name="Path 271" d="M222.336-33.936a2.346,2.346,0,0,1-2.346,2.344,2.343,2.343,0,0,1-2.343-2.344,2.344,2.344,0,0,1,2.343-2.343A2.347,2.347,0,0,1,222.336-33.936Z" transform="translate(-146.13 -125.813)" fill="none" stroke="#353738" stroke-miterlimit="2" stroke-width="2"/>
  </g>
</svg>
