<svg xmlns="http://www.w3.org/2000/svg" width="90.093" height="57.583" viewBox="0 0 90.093 57.583">
  <g id="Group_23" data-name="Group 23" transform="translate(-14.609 -33.626)">
    <path id="Path_281" data-name="Path 281" d="M123.712,197.942s20.8,21.183,28.958,23.417c4.987,1.366,6.49-1.093,6.49-1.093m-12.434-13.391c11.2,12.571,12.977,15.505,16.4,13.664a11.913,11.913,0,0,0,3.962-4.168M155.05,203.4c11.2,12.571,12.977,15.505,16.4,13.664a11.913,11.913,0,0,0,3.962-4.168m-13.8-13.869c11.2,12.571,12.977,15.506,16.4,13.664a10.759,10.759,0,0,0,1.8-1.509c1.789-2.145.735-5.126-1.292-7.048-4.348-4.125-14.689-13.354-20.519-18.169,0,0-7.443,7.041-12.7,6.7s-5.183-5.534-3.855-8.4,9.047-11.41,14.1-11.478,21.008,3.553,21.008,3.553m-46.355-1.161h19.4m35.658,26.017-5.508,4.435" transform="translate(-94.613 -132.142)" fill="none" stroke="#fff" stroke-linecap="round" stroke-linejoin="round" stroke-width="3"/>
    <path id="Path_282" data-name="Path 282" d="M68.484,149.583V184.82H80.235l8.335-31.5s-2.824-1.758-10.043-3.056A52.813,52.813,0,0,0,68.484,149.583Zm87.093,0V184.82H143.826l-10.234-28.272s3.553-4.372,11.942-6.285A37.423,37.423,0,0,1,155.577,149.583Z" transform="translate(-52.375 -114.335)" fill="#fb0" stroke="#fb0" stroke-linecap="round" stroke-linejoin="round" stroke-width="3"/>
    <path id="Path_283" data-name="Path 283" d="M101,179.894a2.46,2.46,0,1,1-2.459-2.459A2.459,2.459,0,0,1,101,179.894Zm64.275,0a2.46,2.46,0,1,0,2.46-2.459A2.46,2.46,0,0,0,165.271,179.894Z" transform="translate(-73.478 -135.699)" fill="#fff"/>
  </g>
</svg>
