<svg xmlns="http://www.w3.org/2000/svg" xmlns:xlink="http://www.w3.org/1999/xlink" width="171.01" height="171.01" viewBox="0 0 171.01 171.01">
  <defs>
    <clipPath id="clip-path">
      <path id="Path_287" data-name="Path 287" d="M0,0H171.01V171.01H0Z"/>
    </clipPath>
  </defs>
  <g id="Group_28" data-name="Group 28">
    <g id="Group_27" data-name="Group 27" clip-path="url(#clip-path)">
      <g id="Group_24" data-name="Group 24" transform="translate(101.625 53.737)">
        <path id="Path_284" data-name="Path 284" d="M310.013,191.485h12.881a12.881,12.881,0,0,1,12.882,12.882v4.309a2.328,2.328,0,0,1-2.061,2.313l-4.507.521a13.229,13.229,0,0,0-3.581.936h0a23.906,23.906,0,0,1-18.4.019l-.031-.013a13.869,13.869,0,0,0-3.736-.971l-4.272-.493a2.328,2.328,0,0,1-2.061-2.313v-4.308A12.881,12.881,0,0,1,310.013,191.485Zm6.155-34.37h.571a8.77,8.77,0,0,1,8.764,9.074l-.286,8.206a8.769,8.769,0,0,1-8.764,8.465h0a8.769,8.769,0,0,1-8.764-8.465l-.286-8.206a8.77,8.77,0,0,1,8.764-9.075Z" transform="translate(-297.131 -157.115)" fill="none" stroke="#fb0" stroke-linecap="round" stroke-linejoin="round" stroke-width="4"/>
      </g>
      <g id="Group_25" data-name="Group 25" transform="translate(30.741 53.737)">
        <path id="Path_285" data-name="Path 285" d="M102.763,191.485h12.881a12.881,12.881,0,0,1,12.882,12.882v4.309a2.328,2.328,0,0,1-2.061,2.313l-4.507.521a13.228,13.228,0,0,0-3.581.936h0a23.906,23.906,0,0,1-18.4.019l-.031-.013a13.87,13.87,0,0,0-3.736-.971l-4.272-.493a2.328,2.328,0,0,1-2.061-2.313v-4.308A12.881,12.881,0,0,1,102.763,191.485Zm6.155-34.37h.571a8.77,8.77,0,0,1,8.764,9.074l-.286,8.206a8.769,8.769,0,0,1-8.764,8.465h0a8.769,8.769,0,0,1-8.764-8.465l-.286-8.206A8.77,8.77,0,0,1,108.918,157.115Z" transform="translate(-89.881 -157.115)" fill="none" stroke="#fb0" stroke-linecap="round" stroke-linejoin="round" stroke-width="4"/>
      </g>
      <g id="Group_26" data-name="Group 26" transform="translate(61.431 44.162)">
        <path id="Path_286" data-name="Path 286" d="M195.928,172.654h16.316a16.316,16.316,0,0,1,16.316,16.316v5.458a2.949,2.949,0,0,1-2.61,2.929l-5.71.66A16.752,16.752,0,0,0,215.7,199.2h0a30.279,30.279,0,0,1-23.3.024l-.039-.016a17.562,17.562,0,0,0-4.732-1.23l-5.411-.624a2.949,2.949,0,0,1-2.611-2.929V188.97A16.316,16.316,0,0,1,195.928,172.654ZM203.7,129.12h.763a11.718,11.718,0,0,1,11.711,12.125L215.8,152.21a11.718,11.718,0,0,1-11.711,11.31h0a11.718,11.718,0,0,1-11.711-11.31l-.381-10.965A11.718,11.718,0,0,1,203.7,129.12Z" transform="translate(-179.612 -129.12)" fill="#fb0" stroke="#fb0" stroke-linecap="round" stroke-linejoin="round" stroke-width="4"/>
      </g>
    </g>
  </g>
  <g id="Group_29" data-name="Group 29" transform="translate(109.261 114.914)">
    <path id="Path_288" data-name="Path 288" d="M291.237,298.315l2.367,1.622a11.939,11.939,0,0,1-1.322,4.078l-2.871-.08.961,2.7a12.029,12.029,0,0,1-3.463,2.52l-2.277-1.752-.812,2.755a12.142,12.142,0,0,1-4.284,0l-.812-2.755-2.277,1.752a12.03,12.03,0,0,1-3.463-2.52l.961-2.7-2.871.08a11.938,11.938,0,0,1-1.322-4.078l2.367-1.622-2.367-1.622a11.928,11.928,0,0,1,1.321-4.076l2.873.08-.963-2.705a12.118,12.118,0,0,1,3.466-2.52l2.275,1.752.811-2.754a12.157,12.157,0,0,1,4.287,0l.811,2.754,2.275-1.752a12.117,12.117,0,0,1,3.466,2.52l-.963,2.705,2.873-.08a11.927,11.927,0,0,1,1.321,4.076Z" transform="translate(-269.751 -286.28)" fill="none" stroke="#fff" stroke-linecap="round" stroke-linejoin="round" stroke-width="2"/>
    <path id="Path_289" data-name="Path 289" d="M308.63,331.556a5.835,5.835,0,1,0,5.835-5.835A5.835,5.835,0,0,0,308.63,331.556Z" transform="translate(-302.283 -319.227)" fill="none" stroke="#fff" stroke-linecap="round" stroke-linejoin="round" stroke-width="2"/>
  </g>
</svg>
